<svg xmlns="http://www.w3.org/2000/svg" viewBox="0 0 2881 1801"><defs><style>.a,.b,.c,.d,.e,.f{fill:none;stroke-opacity:0.7;}.a{stroke:#9d9482;}.b{stroke:#68ad36;}.c{stroke:#b3903a;}.d{stroke:#34b288;}.e{stroke:#e87886;}.f{stroke:#ff743e;}.g{fill:#68ad36;}.g,.h,.i,.j{stroke:#000;}.h{fill:#ff743e;}.i{fill:#d27cce;}.j{fill:#00b7da;}</style></defs><title>Artboard 10507</title><path class="a" d="M1354.9,1002c3.6-3.4,15.1-4.1,19.2-1.1"/><path class="b" d="M1055.4,925.8c36.3-33.2,150.3-37.3,190-6.9"/><path class="b" d="M1245.4,918.9c20.1,7.8,36.3,44.8,26.9,61.7"/><path class="a" d="M1423.7,843.1c52.4-5.8,141.4,51.2,148.4,95"/><path class="b" d="M1374.1,1000.9c-15.7-21.6-.4-73.7,25.5-86.8"/><path class="b" d="M1374.1,1000.9c14.6-8.6,52-3,62.2,9.2"/><path class="b" d="M1374.1,1000.9c-14.7-49.7,52.3-142.8,111.8-155.2"/><path class="b" d="M1226,653.5c57.7,10.4,125.6,98.3,113.2,146.6"/><path class="b" d="M1226,653.5c52.3-.1,130.8,65.4,130.9,109.1"/><path class="b" d="M1226,653.5c42.9-9,123.4,31.4,134.1,67.3"/><path class="b" d="M1466.1,967.4c-9.3-42.2,52.4-117.3,102.9-125.1"/><path class="b" d="M1374.1,1000.9c10.4-22.1,65.6-42.2,92.1-33.5"/><path class="b" d="M1374.1,1000.9c-55-34.3-75.9-154.8-34.8-200.8"/><path class="a" d="M1406.8,624.8c23.3,14.6,32.2,65.8,14.7,85.4"/><path class="b" d="M1374.1,1000.9c67.2,22.8,127.2,141.4,99.9,197.6"/><path class="b" d="M1374.1,1000.9c2-16.9,35.2-39.6,55.4-38"/><path class="b" d="M1436.3,1010.2c47,17.7,85.9,103.2,64.8,142.6"/><path class="b" d="M1374.1,1000.9c-69.3-6-162.4-102.1-155.2-160"/><path class="b" d="M1245.4,918.9c-64.7-19.2-127.1-129.2-104.1-183.3"/><path class="b" d="M1337.5,558.5c43.3,28.7,56.9,126.1,22.6,162.3"/><path class="b" d="M1374.1,1000.9c35.1-23.7,130.4-15.2,158.7,14.1"/><path class="a" d="M1423.7,843.1c13.7-28.1,84.6-53.1,118.2-41.6"/><path class="b" d="M1226,653.5c-71.6,1-180.8-87.4-182-147.3"/><path class="a" d="M1423.7,843.1c13.1-9.9,50.3-8.3,62.1,2.7"/><path class="a" d="M1582.1,1052.4c-51.9,7.7-143.5-46-152.7-89.4"/><path class="a" d="M1354.9,1002c-41.8,1.7-107.4-48.2-109.5-83.2"/><path class="a" d="M1394.7,1048.3c-60.8-.9-150.3-78.5-149.3-129.4"/><path class="a" d="M1354.9,1002c-21.6,9.5-71.2-3.4-82.5-21.5"/><path class="a" d="M1354.9,1002c28.2-49.1,158.5-87.5,217.3-63.9"/><path class="a" d="M1423.7,843.1c12.1,18.3-2.4,60.9-24.2,71"/><path class="a" d="M1605.9,776c-7.3,34-79.3,75.9-120,69.8"/><path class="a" d="M1423.7,843.1c13.1-9.9,50.3-8.3,62.1,2.7"/><path class="a" d="M1423.7,843.1c-27.2,5.5-77.9-20.2-84.5-43"/><path class="a" d="M1423.7,843.1c13.7-28.1,84.6-53.1,118.2-41.6"/><path class="a" d="M1423.7,843.1c-32.6-4.9-72.7-53.2-66.8-80.5"/><path class="a" d="M1705.3,877.2c-50.8,12.2-148.8-33.3-163.4-75.8"/><path class="a" d="M1705.3,877.2c-12.1,34.5-92,71-133.2,60.8"/><path class="a" d="M1394.7,1048.3c51.8,16.8,99.4,106.9,79.3,150.3"/><path class="a" d="M1535.5,1407c-62.2-31.4-99.1-156.5-61.6-208.5"/><path class="a" d="M1583.4,1305.3c-47.4-3-113.1-67.1-109.5-106.7"/><path class="a" d="M1394.7,1048.3c46.3,3.1,110.1,65.8,106.4,104.5"/><path class="a" d="M1583.4,1305.3c-52.9-16.7-102.4-108.2-82.4-152.5"/><path class="b" d="M908.5,522.3c97.6,3.7,237.2,131.7,232.8,213.3"/><path class="a" d="M1354.9,1002c38.7-27.2,145.5-19.3,178,13"/><path class="a" d="M1676,1135.2c-57.3-.1-143.3-72.1-143.2-120.1"/><path class="a" d="M1717,1082.7c-53,17.3-163.5-23.3-184.2-67.6"/><path class="b" d="M908.5,522.3c23.3-25.9,104.6-35.5,135.6-16"/><path class="a" d="M1315.1,1382.1c-33.7-35.9-19.9-132,22.9-160.2"/><path class="b" d="M1374.1,1000.9c45.6,50.2,24,182.8-36,221"/><path class="a" d="M1050,767.3c51.4-13.5,152.7,30.6,168.9,73.6"/><path class="a" d="M1423.7,843.1c-41.5,33.8-164.4,32.5-204.9-2.2"/><path class="b" d="M1218.9,840.9c-40.7-8.1-87.3-71.3-77.6-105.3"/><path class="b" d="M1436.3,1010.2c-4.2-13.5,13.7-39.2,29.9-42.7"/><path class="a" d="M1354.9,1002c3.6-3.4,15.1-4.1,19.2-1.1"/><path class="a" d="M1354.9,1002c-41.8,1.7-107.4-48.2-109.5-83.2"/><path class="a" d="M1354.9,1002c-21.6,9.5-71.2-3.4-82.5-21.5"/><path class="a" d="M1423.7,843.1c52.4-5.8,141.4,51.2,148.4,95"/><path class="a" d="M1423.7,843.1c12.1,18.3-2.4,60.9-24.2,71"/><path class="a" d="M1605.9,776c-7.3,34-79.3,75.9-120,69.8"/><path class="a" d="M1354.9,1002c18.2-12,67.1-7.1,81.4,8.1"/><path class="a" d="M1423.7,843.1c-27.2,5.5-77.9-20.2-84.5-43"/><path class="a" d="M1423.7,843.1c13.7-28.1,84.6-53.1,118.2-41.6"/><path class="a" d="M1423.7,843.1c-32.6-4.9-72.7-53.2-66.8-80.5"/><path class="a" d="M1423.7,843.1c-42-13.8-80.1-87.2-63.6-122.3"/><path class="a" d="M1817.3,779.6c-34.6,54.1-183.6,91.8-248.2,62.8"/><path class="a" d="M1354.9,1002c14-25.5,80.8-46.3,111.3-34.6"/><path class="a" d="M1286.1,660.1c44.1,19.1,76,103.1,53.1,140"/><path class="a" d="M1423.7,843.1c-32.2-26.2-33.6-106-2.3-132.9"/><path class="a" d="M1423.7,843.1c29.8,23,33.2,94.9,5.7,119.9"/><path class="a" d="M1423.7,843.1c28.9-24.5,116.1-24.9,145.3-.7"/><path class="a" d="M1310,1060.8c-26.7-9.7-49.3-57.9-37.7-80.2"/><path class="c" d="M1389.5,840.4c-10.1,39.8-96.5,86.9-144.1,78.5"/><path class="c" d="M1389.5,840.4c35.3,34.7,26,131-15.4,160.6"/><path class="c" d="M1389.5,840.4c10.1,47.7-60.2,131.8-117.2,140.2"/><path class="c" d="M1360.8,1159.3c10.4,16.3-3.2,53.9-22.8,62.6"/><path class="c" d="M1755.3,1001.9c-51.9,17.9-161.8-20.4-183.2-63.8"/><path class="c" d="M1389.5,840.4c19.6,13.1,25.6,57.3,10,73.8"/><path class="c" d="M1389.5,840.4c20.6-15,78.3-11.8,96.3,5.4"/><path class="c" d="M1389.5,840.4c50,26.1,78,128,46.8,169.8"/><path class="c" d="M1389.5,840.4c-19.7.4-49.9-23.8-50.3-40.2"/><path class="c" d="M1389.5,840.4c-25.1-10.1-44.6-56.7-32.6-77.7"/><path class="c" d="M1389.5,840.4c-34.5-19-52.1-90.7-29.4-119.6"/><path class="c" d="M1389.5,840.4c36.4-29.6,144.1-28.4,179.5,2"/><path class="c" d="M1389.5,840.4c21.2-33.3,112.6-56.6,152.4-38.9"/><path class="c" d="M1389.5,840.4c-24.7-31.4-5.6-109.5,31.9-130.2"/><path class="c" d="M1447.7,1056.8c39.1,24,54.9,109,26.2,141.7"/><path class="c" d="M1389.5,840.4c37.3,17.8,61.2,91.4,39.9,122.6"/><path class="c" d="M1447.7,1056.8c33.6,10.3,65.6,67.8,53.3,95.9"/><path class="c" d="M1389.5,840.4c-34,28.7-136.4,29-170.7.5"/><path class="c" d="M1389.5,840.4c-74.7,20.6-223.7-42.3-248.3-104.8"/><path class="c" d="M1389.5,840.4c70.4,11,156.4,115.8,143.3,174.7"/><path class="c" d="M954.2,382.7c47.5,9.7,101.4,83.9,89.9,123.6"/><path class="a" d="M1354.9,1002c-21.6,9.5-71.2-3.4-82.5-21.5"/><path class="a" d="M1423.7,843.1c12.1,18.3-2.4,60.9-24.2,71"/><path class="a" d="M1423.7,843.1c13.1-9.9,50.3-8.3,62.1,2.7"/><path class="a" d="M1423.7,843.1c-27.2,5.5-77.9-20.2-84.5-43"/><path class="a" d="M1423.7,843.1c13.7-28.1,84.6-53.1,118.2-41.6"/><path class="a" d="M1423.7,843.1c-32.6-4.9-72.7-53.2-66.8-80.5"/><path class="a" d="M1423.7,843.1c-42-13.8-80.1-87.2-63.6-122.3"/><path class="a" d="M1090.3,1033.5c23.8-41,133-72.8,182-52.9"/><path class="a" d="M1354.9,1002c-21.6,9.5-71.2-3.4-82.5-21.5"/><path class="a" d="M1423.7,843.1c12.1,18.3-2.4,60.9-24.2,71"/><path class="a" d="M1423.7,843.1c13.1-9.9,50.3-8.3,62.1,2.7"/><path class="a" d="M1423.7,843.1c-27.2,5.5-77.9-20.2-84.5-43"/><path class="a" d="M1423.7,843.1c13.7-28.1,84.6-53.1,118.2-41.6"/><path class="a" d="M1423.7,843.1c-32.6-4.9-72.7-53.2-66.8-80.5"/><path class="a" d="M1423.7,843.1c-42-13.8-80.1-87.2-63.6-122.3"/><path class="a" d="M1748,670.7c-10,60.6-133.6,139.1-206.1,130.7"/><path class="a" d="M1335.1,915.1c28.3,10.6,51.7,62.1,39,85.8"/><path class="a" d="M1768.4,932.6c-37.9,33.9-155.7,37.2-196.2,5.5"/><path class="a" d="M1394.7,1048.3c9.2-51.7,115.6-117.8,177.5-110.2"/><path class="a" d="M1705.3,877.2c-12.1,34.5-92,71-133.2,60.8"/><path class="a" d="M1394.7,1048.3c-31.1-27.6-28.2-108.1,4.9-134.1"/><path class="a" d="M1394.7,1048.3c-.8-14.6,24.2-37.4,41.6-38.1"/><path class="a" d="M1406.8,624.8c13.6,27-14.4,84.6-46.6,96"/><path class="a" d="M1423.7,843.1c28.9-24.5,116.1-24.9,145.3-.7"/><path class="a" d="M1394.7,1048.3c-5-28.1,37.9-76.6,71.5-80.8"/><path class="a" d="M1423.7,843.1c-27.2,5.5-77.9-20.2-84.5-43"/><path class="a" d="M1406.8,624.8c23.3,14.6,32.2,65.8,14.7,85.4"/><path class="a" d="M1310,1060.8c.5-39.5,72.1-98.2,119.4-97.8"/><path class="d" d="M1030.6,827.5c40.9-28.8,153.8-20.8,188.3,13.4"/><path class="e" d="M1423.7,843.1c1.6-46.6,87.4-114.5,143.1-113.1"/><path class="e" d="M1605.9,776c-18.8-2.7-42.2-30.3-39.1-46"/><path class="f" d="M1389.5,840.4c-34.5-67.3,34.4-211.6,114.8-240.5"/><path class="e" d="M1389.5,840.4c7,24.1-25.7,68.9-54.4,74.7"/><path class="c" d="M1285.3,1144.4c-16.5-43.6,36.8-129.6,88.8-143.5"/><path class="c" d="M1360.8,1159.3c-35.2-33.9-27.2-128.9,13.3-158.4"/><path class="c" d="M1389.5,840.4c-15.7-37.7,28.4-113.8,73.5-126.9"/><path class="a" d="M908.5,522.3c-39.1-19.2-63.4-97.2-40.4-129.9"/><path class="e" d="M1203.4,1048.5c-9.6,43-101.2,95.6-152.7,87.5"/><path class="e" d="M1447.7,1056.8c-12.7,7.2-44.5,2-53.1-8.5"/><path class="e" d="M1203.4,1048.5c38.2-32,153-32.2,191.3-.2"/><path class="e" d="M1285.3,1144.4c-1.1-37.5,64.6-95.2,109.4-96.1"/><path class="e" d="M954.2,382.7c-14.9,16.4-66.6,22.2-86.1,9.7"/><path class="e" d="M1285.3,1144.4c29.1,38.9,3,133.7-43.5,158"/><path class="e" d="M1285.3,1144.4c-15-20.9-.2-71,24.8-83.6"/><path class="e" d="M1993.3,741.8c-26.2,37-131.8,59.7-176,37.8"/><path class="e" d="M1898.5,877.2c-38.6,32.3-154.5,32.4-193.1.1"/><path class="e" d="M1447.7,1056.8c-55.9-38.7-70.3-167-24-213.7"/><path class="e" d="M1203.4,1048.5c-5-77.9,127.2-201.2,220.3-205.4"/><path class="e" d="M785.8,1244.3c20.7-37.8,119.5-68.4,164.6-51.1"/><path class="e" d="M828.4,1302.7c-1.8-42.3,71.5-108,122.1-109.5"/><path class="e" d="M1203.4,1048.5c-16,71.3-167.7,158.1-252.9,144.7"/><path class="f" d="M1592.8,412.7c27.1,52.2-26,164.5-88.5,187.2"/><path class="e" d="M1683.3,1432.3c-50.3-8.7-110.2-85-99.8-127.1"/><path class="e" d="M1578.6,1552.5c-43.4-21.9-69.2-109.1-43.1-145.4"/><path class="e" d="M1592.8,412.7c-18.4-36.5,19.4-114.5,63.1-129.9"/><path class="e" d="M1285.3,1144.4c4.3,45.5-70.9,119.2-125.3,122.8"/><path class="e" d="M1892.2,580.3c-7.2,42.2-93.7,96.5-144.2,90.4"/><path class="c" d="M746.7,492.5c39.5-21.1,136.5-3.3,161.8,29.7"/><path class="c" d="M796.6,407.5c49.8,4.2,117,73.1,111.9,114.8"/><path class="c" d="M758.8,436.5c50.5-7.9,140.3,43.6,149.7,85.8"/><path class="e" d="M1285.3,1144.4c-20.1-40.1,21.6-125.5,69.6-142.4"/><path class="e" d="M1447.7,1056.8c-31.7,4.6-87.4-28.3-92.9-54.8"/><path class="e" d="M1203.4,1048.5c19.2-34.6,110.1-62.5,151.5-46.4"/><ellipse class="g" cx="1337.5" cy="558.5" rx="4.3" ry="3.6"/><ellipse class="h" cx="1898.5" cy="877.2" rx="10.7" ry="9"/><ellipse class="h" cx="1389.5" cy="840.4" rx="11.3" ry="9.5"/><ellipse class="h" cx="1566.8" cy="730" rx="10.7" ry="9"/><ellipse class="h" cx="828.4" cy="1302.7" rx="10.7" ry="9"/><ellipse class="h" cx="1203.4" cy="1048.5" rx="11.1" ry="9.3"/><ellipse class="h" cx="1447.7" cy="1056.8" rx="10.7" ry="9"/><ellipse class="h" cx="1578.6" cy="1552.5" rx="10.7" ry="9"/><ellipse class="h" cx="785.8" cy="1244.3" rx="10.7" ry="9"/><ellipse class="h" cx="1993.3" cy="741.8" rx="10.7" ry="9"/><ellipse class="h" cx="1360.8" cy="1159.3" rx="10.7" ry="9"/><ellipse class="h" cx="1892.2" cy="580.3" rx="10.7" ry="9"/><ellipse class="h" cx="1285.3" cy="1144.4" rx="10.9" ry="9.1"/><ellipse class="h" cx="954.2" cy="382.7" rx="10.7" ry="9"/><ellipse class="h" cx="1683.3" cy="1432.3" rx="10.7" ry="9"/><ellipse class="h" cx="1592.8" cy="412.7" rx="10.8" ry="9"/><ellipse class="h" cx="796.6" cy="407.5" rx="10.7" ry="9"/><ellipse class="h" cx="746.7" cy="492.5" rx="10.7" ry="9"/><ellipse class="h" cx="758.8" cy="436.5" rx="10.7" ry="9"/><ellipse class="h" cx="1755.3" cy="1001.9" rx="10.7" ry="9"/><ellipse class="i" cx="1286.1" cy="660.1" rx="4.3" ry="3.6"/><ellipse class="i" cx="1394.7" cy="1048.3" rx="10.8" ry="9"/><ellipse class="g" cx="1474" cy="1198.5" rx="4.7" ry="4"/><ellipse class="i" cx="1315.1" cy="1382.1" rx="10.7" ry="9"/><ellipse class="i" cx="868.1" cy="392.4" rx="10.7" ry="9"/><ellipse class="i" cx="1406.8" cy="624.8" rx="10.7" ry="9"/><ellipse class="g" cx="1572.2" cy="938.1" rx="11.1" ry="9.3"/><ellipse class="g" cx="1541.9" cy="801.5" rx="10.7" ry="9"/><ellipse class="i" cx="1241.8" cy="1302.4" rx="10.7" ry="9"/><ellipse class="i" cx="1310" cy="1060.8" rx="10.7" ry="9"/><ellipse class="i" cx="1768.4" cy="932.6" rx="10.7" ry="9"/><ellipse class="g" cx="1485.9" cy="845.8" rx="10.9" ry="9.1"/><ellipse class="i" cx="1717" cy="1082.7" rx="4.3" ry="3.6"/><ellipse class="i" cx="1050.7" cy="1136" rx="10.7" ry="9"/><ellipse class="i" cx="1050" cy="767.3" rx="4.3" ry="3.6"/><ellipse class="i" cx="1817.3" cy="779.6" rx="10.7" ry="9"/><ellipse class="g" cx="1501.1" cy="1152.7" rx="4.4" ry="3.7"/><ellipse class="i" cx="1705.3" cy="877.2" rx="10.8" ry="9"/><ellipse class="i" cx="1582.1" cy="1052.4" rx="4.3" ry="3.6"/><ellipse class="g" cx="1339.2" cy="800.1" rx="10.7" ry="9"/><ellipse class="i" cx="1423.7" cy="843.1" rx="11.6" ry="9.7"/><ellipse class="i" cx="950.5" cy="1193.2" rx="10.9" ry="9.1"/><ellipse class="g" cx="1338.1" cy="1221.9" rx="11.1" ry="9.3"/><ellipse class="h" cx="1504.4" cy="599.8" rx="10.9" ry="9.1"/><ellipse class="i" cx="1605.9" cy="776" rx="10.7" ry="9"/><ellipse class="i" cx="1090.3" cy="1033.5" rx="4.3" ry="3.6"/><ellipse class="i" cx="1583.4" cy="1305.3" rx="10.7" ry="9"/><ellipse class="i" cx="1535.5" cy="1407" rx="10.7" ry="9"/><ellipse class="j" cx="1030.6" cy="827.5" rx="4.3" ry="3.6"/><ellipse class="i" cx="1655.9" cy="282.7" rx="10.7" ry="9"/><ellipse class="i" cx="1159.9" cy="1267.2" rx="10.7" ry="9"/><ellipse class="i" cx="1748" cy="670.7" rx="10.7" ry="9"/><ellipse class="i" cx="1335.1" cy="915.1" rx="10.7" ry="9"/><ellipse class="g" cx="1055.4" cy="925.8" rx="10.8" ry="9"/><ellipse class="g" cx="1532.8" cy="1015.1" rx="4.6" ry="3.8"/><ellipse class="g" cx="1141.3" cy="735.6" rx="4.9" ry="4.1"/><ellipse class="g" cx="1044.1" cy="506.3" rx="4.4" ry="3.7"/><ellipse class="g" cx="1218.9" cy="840.9" rx="4.7" ry="3.9"/><ellipse class="g" cx="1226" cy="653.5" rx="10.8" ry="9"/><ellipse class="g" cx="1569.1" cy="842.4" rx="4.6" ry="3.8"/><ellipse class="g" cx="1421.5" cy="710.2" rx="4.4" ry="3.6"/><ellipse class="g" cx="1466.1" cy="967.4" rx="4.3" ry="3.6"/><ellipse class="g" cx="1436.3" cy="1010.2" rx="10.8" ry="9"/><ellipse class="g" cx="908.5" cy="522.3" rx="10.7" ry="9"/><ellipse class="g" cx="1429.4" cy="963" rx="4.5" ry="3.8"/><ellipse class="g" cx="1374.1" cy="1000.9" rx="11.1" ry="9.3"/><ellipse class="g" cx="1360.1" cy="720.8" rx="10.8" ry="9.1"/><ellipse class="g" cx="1272.3" cy="980.6" rx="10.7" ry="9"/><ellipse class="g" cx="1357" cy="762.6" rx="10.7" ry="9"/><ellipse class="g" cx="1245.4" cy="918.9" rx="10.7" ry="9"/><ellipse class="g" cx="1399.5" cy="914.1" rx="10.8" ry="9.1"/><ellipse class="g" cx="1463" cy="713.4" rx="10.7" ry="9"/><ellipse class="i" cx="1354.9" cy="1002" rx="11.3" ry="9.5"/><ellipse class="i" cx="1676" cy="1135.2" rx="4.3" ry="3.6"/></svg>