<svg id="Layer_1" data-name="Layer 1" xmlns="http://www.w3.org/2000/svg" viewBox="0 0 1920 1080"><defs><style>.cls-1,.cls-2,.cls-3,.cls-4,.cls-5,.cls-6,.cls-7,.cls-8,.cls-9{fill:none;stroke-opacity:0.7;}.cls-1{stroke:#68ad36;}.cls-2{stroke:#9d9482;}.cls-3{stroke:#b3903a;}.cls-4{stroke:#34b288;}.cls-5{stroke:#d27cce;}.cls-6{stroke:#7f958c;}.cls-7{stroke:#6999d4;}.cls-8{stroke:#e87886;}.cls-9{stroke:#ff743e;}.cls-10{fill:#68ad36;}.cls-10,.cls-11,.cls-12,.cls-13{stroke:#000;}.cls-11{fill:#ff743e;}.cls-12{fill:#d27cce;}.cls-13{fill:#00b7da;}</style></defs><title>AArtboard 1</title><path class="cls-1" d="M899.49,8.05c4.47,6.6,1.28,23.2-5.32,27.67"/><path class="cls-2" d="M1895.55,938.32c-83.75,105.54-367.67,138.22-473.21,54.47"/><path class="cls-2" d="M1895.55,938.32c-12.46-19.59-1.77-67.66,17.82-80.13"/><path class="cls-2" d="M1437,885.4c20.62-4.75,58.67,19.06,63.42,39.68"/><path class="cls-2" d="M1437,885.4c-23.65-1.18-57.35-38.43-56.17-62.09"/><path class="cls-2" d="M1437,885.4c.8,12-15.94,31.09-27.9,31.89"/><path class="cls-1" d="M1445.44,874.53c21.11-.89,54.12,29.43,55,50.54"/><path class="cls-1" d="M1445.44,874.53c-23.16,2.67-61.91-28.06-64.58-51.22"/><path class="cls-2" d="M554.09,381.51c6.32-3.81,21.51,0,25.31,6.27"/><path class="cls-2" d="M1895.55,938.32c-81.67,76.37-318.72,68.42-395.09-13.25"/><path class="cls-2" d="M1895.55,938.32c-125.94,79.94-434.75,10.93-514.68-115"/><path class="cls-1" d="M1310.92,622.45c81.24,19.94,173.18,171.71,153.24,252.94"/><path class="cls-1" d="M1310.92,622.45C1183.4,602.2,1022.5,380.55,1042.75,253"/><path class="cls-1" d="M1464.16,875.39c-2.63,19.38-35.65,44.52-55,41.89"/><path class="cls-1" d="M1422.34,992.8c-15.12-31.84,10-102.29,41.82-117.4"/><path class="cls-1" d="M1464.16,875.39c-27.08,6.24-77.05-25-83.3-52.08"/><path class="cls-1" d="M1310.92,622.45c81.14,17.29,176.92,164.94,159.63,246.08"/><path class="cls-1" d="M1310.92,622.45c96.53,7.06,230.73,162.46,223.67,259"/><path class="cls-1" d="M1380.87,823.31c27-8.89,80.79,18.23,89.69,45.21"/><path class="cls-1" d="M1380.87,823.31c27.08-6.24,77.05,25,83.3,52.08"/><path class="cls-1" d="M1380.87,823.31c42.37-19.12,134.6,15.76,153.72,58.13"/><path class="cls-2" d="M466.25,238.45c-4.64.18-11.87-6.51-12.05-11.16"/><path class="cls-1" d="M1310.92,622.45c6.7-22.12,49.94-45.25,72.06-38.54"/><path class="cls-2" d="M1295,253.21c4.14,10.85-5.93,33.35-16.78,37.49"/><path class="cls-2" d="M14.12,608.18C18,599.84,36.27,593.1,44.61,597"/><path class="cls-1" d="M1310.92,622.45c-71.12,34-228.75-21.76-262.71-92.88"/><path class="cls-2" d="M1023.77,326.05c123.41-20.27,338.94,134.44,359.21,257.85"/><path class="cls-1" d="M1310.92,622.45c-20.31,12.72-69.85,1.35-82.58-19"/><path class="cls-1" d="M1310.92,622.45c-21.3,2.86-57.54-24.82-60.4-46.12"/><path class="cls-1" d="M1913.37,858.2c-187.95,86.06-599-66.76-685-254.71"/><path class="cls-1" d="M1310.92,622.45c107.81-34.9,321.88,74.48,356.77,182.29"/><path class="cls-1" d="M1310.92,622.45c-20.86-23.36-17.1-89.69,6.26-110.55"/><path class="cls-1" d="M1310.92,622.45c-65.53-5.9-155-113.06-149.08-178.59"/><path class="cls-2" d="M1895.55,938.32c-83.75,105.54-367.67,138.22-473.21,54.47"/><path class="cls-2" d="M1290.66,269.69c1.72,6.69-5.73,19.29-12.42,21"/><path class="cls-2" d="M912.32,69.66C901.91,66.5,891,46.14,894.17,35.72"/><path class="cls-1" d="M1913.37,858.2c-71.29,125.12-365.9,205.88-491,134.6"/><path class="cls-2" d="M1309,828.37c7.4,4.85,11.24,23.23,6.39,30.63"/><path class="cls-1" d="M1913.37,858.2c-188.94,76.19-586.65-92.93-662.84-281.87"/><path class="cls-1" d="M1310.92,622.45c-26.66,2.21-70-34.46-72.18-61.12"/><path class="cls-1" d="M1310.92,622.45c-71.12,34-228.74-21.77-262.7-92.89"/><path class="cls-2" d="M1895.55,938.32c673.62-597.2,2579.85-482.58,3177,191"/><path class="cls-1" d="M1310.92,622.45c-45.29-34.93-60.84-155.27-25.91-200.56"/><path class="cls-2" d="M466.25,238.45c5.89,1.16,13,11.74,11.81,17.63"/><path class="cls-2" d="M848.73-15.67c10.64,1.18,24.82,18.91,23.63,29.55"/><path class="cls-1" d="M527.72,1587.4c-119.89-240.55,61.09-781.21,301.64-901.1"/><path class="cls-1" d="M1913.37,858.2c-131.29,423-962.67,860.49-1385.64,729.2"/><path class="cls-2" d="M848.73-15.67c13,1.67,29.9,23.61,28.23,36.57"/><path class="cls-1" d="M1913.37,858.2c-194.3,75.55-599.07-102.57-674.62-296.87"/><path class="cls-2" d="M1732.22,201.24c-29.59,128.34-266.48,276.46-394.81,246.87"/><path class="cls-2" d="M444.26,705.55c3.91-5.26,17.67-7.28,22.93-3.36"/><path class="cls-1" d="M1913.37,858.2c-68.59,70-276.49,72.14-346.5,3.55"/><path class="cls-1" d="M1913.37,858.2c-143.36,88.17-490.67,5.39-578.84-138"/><path class="cls-2" d="M-633.65,406.39c163-147.76,629-125,776.79,38"/><path class="cls-1" d="M1422.34,992.8c-28.27-18.55-42.85-88.77-24.3-117"/><path class="cls-2" d="M1198.56,387.2c-3.36-35.23,44.45-93.13,79.68-96.49"/><path class="cls-2" d="M848.73-15.67c13,1.67,29.9,23.61,28.23,36.57"/><path class="cls-1" d="M1913.37,858.2c-220.44,129.89-745.93-5.95-875.81-226.39"/><path class="cls-1" d="M1380.87,823.31c-55.51,43.75-204.41,26.1-248.15-29.42"/><path class="cls-1" d="M1314.28,394.84c-.44,11.26-18,27.49-29.27,27.05"/><path class="cls-1" d="M1913.37,858.2c-125.18,77.31-428.91,5.51-506.22-119.67"/><path class="cls-2" d="M-633.65,406.39c279.33-161,939.83,16.47,1100.84,295.8"/><path class="cls-2" d="M1023.77,326.05C676.58,178.54,377.07-563.53,524.59-910.72"/><path class="cls-2" d="M848.73-15.67c13.49,1.21,31.92,23.26,30.71,36.75"/><path class="cls-2" d="M848.73-15.67c13.6,1.28,32.08,23.59,30.8,37.19"/><path class="cls-2" d="M848.73-15.67c12.45,1.27,29.22,21.86,28,34.31"/><path class="cls-1" d="M1310.92,622.45c5.83,35.64-38.88,97.86-74.52,103.69"/><path class="cls-1" d="M1913.37,858.2c-188.5,50-546.21-157.8-596.19-346.3"/><path class="cls-2" d="M1035.2,779.63c-46.34,28.16-158.08.9-186.24-45.44"/><path class="cls-2" d="M934.54,135.47c89.13,131.2,26,461.7-105.17,550.83"/><path class="cls-2" d="M1035.2,779.63c31.5-21.38,110.81-6.21,132.19,25.29"/><path class="cls-2" d="M848.73-15.67c12.59,1,30,21.33,29,33.92"/><path class="cls-2" d="M848.73-15.67C860-16.1,877.53.13,878,11.39"/><path class="cls-2" d="M848.73-15.67c12.39,1.22,29.14,21.62,27.93,34"/><path class="cls-2" d="M848.73-15.67c12.39,1.22,29.14,21.62,27.93,34"/><path class="cls-2" d="M1023.77,326.05c20.23,69.41-53.54,203.88-123,224.11"/><path class="cls-1" d="M823,431.31c7.58-1.53,21.26,7.55,22.78,15.14"/><path class="cls-2" d="M1766.66,944.09c-2.93,3.76-13,5-16.72,2.09"/><path class="cls-2" d="M1309,828.37c15.4,13.62,18.06,57.15,4.44,72.55"/><path class="cls-1" d="M1310.92,622.45c36.48,5.54,82.89,68.59,77.34,105.07"/><path class="cls-2" d="M848.73-15.67c13,1.67,29.9,23.61,28.23,36.57"/><path class="cls-2" d="M888.26-7.09c4.51,4.32,4.78,17.56.46,22.07"/><path class="cls-2" d="M888.26-7.09C894.41-2,896,14.81,891,21"/><path class="cls-2" d="M888.26-7.09c4.9,3.23,7.4,15.41,4.18,20.3"/><path class="cls-1" d="M1191.51,791.75c-4.15-22.1,22.78-61.47,44.88-65.61"/><path class="cls-1" d="M1310.92,622.45c20.09-2,53.28,25,55.33,45.1"/><path class="cls-2" d="M912.32,69.66C901,63.13,893.77,36.32,900.3,25"/><path class="cls-2" d="M848.73-15.67c7.57-.08,19.05,11.17,19.13,18.74"/><path class="cls-2" d="M1732.22,201.24c-45.31,133.57-313.64,266-447.21,220.65"/><path class="cls-1" d="M1913.37,858.2c-131.16,78.88-446.22.48-525.1-130.68"/><path class="cls-1" d="M1388.27,727.52c-66.19,35.32-218.46-11-253.78-77.18"/><path class="cls-2" d="M793.43,138c9.1,11.35,5.73,42-5.62,51.12"/><path class="cls-1" d="M1380.87,823.31c-65,194.74-454.65,389.33-649.39,324.32"/><path class="cls-2" d="M888.26-7.09c6.57,5,9,22.26,4,28.83"/><path class="cls-2" d="M1415.71,644.32c-5.25,14.54-34.92,28.48-49.46,23.23"/><path class="cls-1" d="M802.37,62.19c7.73-2.39,22.92,5.61,25.31,13.34"/><path class="cls-1" d="M1422.34,992.8c-137,89.25-476.44,17.58-565.68-119.45"/><path class="cls-1" d="M1913.37,858.2c-82.49,72.3-314.67,57-387-25.48"/><path class="cls-2" d="M1389.88,663.7c-4,5.5-18.13,7.81-23.63,3.85"/><path class="cls-1" d="M1422.34,992.8C1310.58,994,1141.1,828.22,1139.88,716.46"/><path class="cls-1" d="M1037.55,631.81c-6.06,17.88-42,35.61-59.84,29.55"/><path class="cls-1" d="M1422.34,992.8c71.29-125.12,365.9-205.88,491-134.6"/><path class="cls-2" d="M627.49,764.69c5.81-8.89,27.86-13.52,36.76-7.71"/><path class="cls-2" d="M736.27,668.62c35.65-9.42,103.27,29.91,112.69,65.57"/><path class="cls-2" d="M888.26-7.09c5.62,4.16,7.81,18.84,3.65,24.46"/><path class="cls-1" d="M856.66,873.35c-112.13,43.66-345.8-59-389.46-171.16"/><path class="cls-1" d="M467.19,702.18C562.87,689.78,725,814.68,737.41,910.36"/><path class="cls-1" d="M1913.37,858.2c-158.48,119-574.65,59.68-693.61-98.8"/><path class="cls-2" d="M833.38,781.5c2.08-8.58,18.07-18.34,26.65-16.26"/><path class="cls-1" d="M1219.76,759.39c-3.86,23.73-45.24,53.53-69,49.67"/><path class="cls-1" d="M1219.76,759.39c-45.29,14.87-135.54-30.76-150.41-76.06"/><path class="cls-2" d="M1214.68,783.27c8.69-14.86,44-24.11,58.88-15.42"/><path class="cls-2" d="M1214.68,783.27c8.69-14.86,44-24.11,58.88-15.42"/><path class="cls-1" d="M802.37,62.19c4.66-3.21,16.45-1,19.66,3.63"/><path class="cls-2" d="M1056.46,834.49c-2.54-5.41,1.78-17.34,7.2-19.87"/><path class="cls-2" d="M1023.77,326.05c-36.09,186.54-370,412.22-556.58,376.13"/><path class="cls-2" d="M1214.68,783.27c-14.34,30.51-81.62,54.75-112.13,40.41"/><path class="cls-1" d="M856.66,873.35c85.06-85,340.17-84.94,425.18.12"/><path class="cls-2" d="M912.32,69.66c-4.91-6.5-2.52-23.62,4-28.53"/><path class="cls-2" d="M59.48,1545.71c-87.16-250.25,157.47-756.36,407.71-843.52"/><path class="cls-2" d="M1443,700.12c-2.78,4.74-14.07,7.67-18.8,4.88"/><path class="cls-2" d="M433.13,717.35c3.78-9.85,24.22-18.95,34.06-15.17"/><path class="cls-1" d="M467.19,702.18C561.8,617.36,831,632,915.78,726.65"/><path class="cls-2" d="M1214.68,783.27c-7.62,17.94-46,33.42-63.9,25.8"/><path class="cls-1" d="M915.78,726.65c-6.1-34.43,36.4-95.23,70.83-101.33"/><path class="cls-1" d="M856.66,873.35c35.14-131.13,284.55-275.1,415.68-240"/><path class="cls-2" d="M1309,828.37c18.56-15.82,70.13-11.72,86,6.83"/><path class="cls-1" d="M1913.37,858.2c-137.25,110.09-508.24,69.35-618.33-67.9"/><path class="cls-2" d="M630.74,773.58c3.38-10,23.48-20,33.51-16.6"/><path class="cls-2" d="M1214.68,783.27c6.24-11.28,32.5-18.83,43.78-12.6"/><path class="cls-1" d="M1913.37,858.2c-128.48,67.2-422-24.71-489.2-153.19"/><path class="cls-2" d="M1035.2,779.63c31.5-21.38,110.81-6.21,132.19,25.29"/><path class="cls-1" d="M467.19,702.18c79.55-119.64,378.32-179.77,498-100.22"/><path class="cls-1" d="M1037.55,631.81c16.66,3.95,35.74,34.86,31.79,51.53"/><path class="cls-2" d="M1309,828.37c32.24-34.89,132.94-38.87,167.83-6.63"/><path class="cls-2" d="M1732.22,201.24c-45.31,133.57-313.64,266-447.21,220.65"/><path class="cls-1" d="M1913.37,858.2c-137.71-70.43-238.63-382.65-168.19-520.36"/><path class="cls-1" d="M1913.37,858.2C1778.73,826.5,1624.33,577,1656,442.36"/><path class="cls-1" d="M1422.34,992.8c-76.66,36.55-246.47-23.61-283-100.27"/><path class="cls-2" d="M722.43,648.41c4-4.43,16.64-5.06,21.06-1.06"/><path class="cls-2" d="M1732.22,201.24c100.79-318.79,730.16-645.79,1049-545"/><path class="cls-1" d="M1913.37,858.2c-112,67.37-381,.44-448.42-111.55"/><path class="cls-1" d="M1913.37,858.2c-155.54,70.15-494.09-57.94-564.24-213.48"/><path class="cls-1" d="M1228.34,603.49c-29.71-13.47-54.06-78.24-40.58-107.94"/><path class="cls-1" d="M1228.34,603.49c-14.08,26.93-75.61,46.2-102.54,32.12"/><path class="cls-1" d="M1913.37,858.2c-112.62,67.7-383.1.32-450.8-112.3"/><path class="cls-1" d="M1913.37,858.2c-112.62,67.7-383.1.32-450.8-112.3"/><path class="cls-2" d="M1288.42,1037.66c-5.06-4.09-6.51-17.81-2.42-22.87"/><path class="cls-2" d="M848.73-15.67c14,22.45,1.4,77.17-21,91.2"/><path class="cls-2" d="M715.46,935c-.54-9.32,12.62-24.12,21.95-24.67"/><path class="cls-2" d="M848.73-15.67c11,21.64-5.06,70.53-26.7,81.49"/><path class="cls-2" d="M1443,700.12c-2.78,4.74-14.07,7.67-18.8,4.88"/><path class="cls-2" d="M1142.55,700.22c57.28-55.37,226.25-52.5,281.62,4.78"/><path class="cls-2" d="M1288.42,1037.66c-5.06-4.09-6.51-17.81-2.42-22.87"/><path class="cls-2" d="M1284.43,951c13.07,12.44,14,50.72,1.57,63.79"/><path class="cls-1" d="M1656,442.36c67.8-382.25,742.89-853.92,1125.14-786.12"/><path class="cls-2" d="M1791.63,365.17C1789.57,376,1770.29,389,1759.5,387"/><path class="cls-2" d="M163.07-830.59C29.26-212.44-1098.68,514.05-1716.83,380.24"/><path class="cls-2" d="M1329.5,547.24c-1,10.86-18.88,25.6-29.74,24.57"/><path class="cls-3" d="M1710.75,416.5c62-366.14,704.29-822.3,1070.43-760.26"/><path class="cls-2" d="M1480.12,891c-6.31.07-15.89-9.29-16-15.61"/><path class="cls-2" d="M466.25,238.45c-4.64.18-11.87-6.51-12.05-11.16"/><path class="cls-2" d="M1023.77,326.05c95.4,4.7,231.46,154.87,226.75,250.27"/><path class="cls-2" d="M1363.75,721.16c-6,5.66-23.57,5.09-29.23-.94"/><path class="cls-2" d="M793.43,138c9.1,11.35,5.73,42-5.62,51.12"/><path class="cls-2" d="M434.42,219.53c16-1.42,42.23,20.51,43.65,36.55"/><path class="cls-3" d="M452.89,230.39c10.17.1,25.27,15.52,25.17,25.69"/><path class="cls-3" d="M453.55,224c11.32,1.52,26,20.78,24.51,32.11"/><path class="cls-3" d="M439,236.39c11.74-3.86,35.15,8,39,19.69"/><path class="cls-3" d="M839.4,893.74c-.63-7.53,9.73-19.77,17.26-20.39"/><path class="cls-2" d="M1325.78,718.2c63-17.22,183.4,51.49,200.62,114.51"/><path class="cls-2" d="M1443,700.12c-2.78,4.74-14.07,7.67-18.8,4.88"/><path class="cls-2" d="M1325.78,718.2c-27.65-6.27-59.72-57.16-53.45-84.81"/><path class="cls-2" d="M1325.78,718.2c-56.51,23.48-176.5-26.08-200-82.59"/><path class="cls-2" d="M785.07,120.6c14.26,13.16,15.89,54.29,2.73,68.55"/><path class="cls-2" d="M912.32,69.66C901.91,66.5,891,46.14,894.17,35.72"/><path class="cls-2" d="M1895.55,938.32c-81.67,76.37-318.72,68.42-395.09-13.25"/><path class="cls-2" d="M1284.43,951c38-48.39,167.63-63.95,216-25.93"/><path class="cls-2" d="M1521.35,946.58c-8.48-.12-21-13-20.89-21.5"/><path class="cls-2" d="M1422.09,885.58c23.57-7.78,70.59,15.92,78.37,39.49"/><path class="cls-2" d="M1895.55,938.32c-125.94,79.94-434.75,10.93-514.68-115"/><path class="cls-2" d="M1284.43,951c-6.25-44.82,51.61-121.44,96.43-127.69"/><path class="cls-2" d="M1392.28,833.82c-4.38.18-11.23-6.12-11.41-10.51"/><path class="cls-2" d="M1416.16,932.11c-4.37-1.56-8.59-10.46-7-14.83"/><path class="cls-2" d="M912.32,69.66c-13.21-4.22-26.71-30.37-22.49-43.58"/><path class="cls-2" d="M1502.26,941.45c-6.24-.93-14.22-11.68-13.29-17.93"/><path class="cls-2" d="M1895.55,938.32c-84.28,78.35-328.22,69.47-406.58-14.8"/><path class="cls-2" d="M1502.41,948.88c-7.76-2.38-15.82-17.6-13.44-25.36"/><path class="cls-2" d="M1895.55,938.32c-98.86,73.69-357.7,35.93-431.39-62.93"/><path class="cls-2" d="M1480.12,891c-6.31.07-15.89-9.29-16-15.61"/><path class="cls-2" d="M1479.89,890.63c-6.19.1-15.63-9-15.73-15.24"/><path class="cls-2" d="M912.32,69.66c62.76,10.59,141,120.61,130.43,183.37"/><path class="cls-2" d="M1490.91,880c-6.37,1.77-18.58-5.12-20.35-11.49"/><path class="cls-2" d="M1493.58,883.27c-7.55,1.66-21.37-7.19-23-14.74"/><path class="cls-2" d="M1895.55,938.32c-99,71-354,29.16-425-69.79"/><path class="cls-2" d="M1895.55,938.32c-83.57,60.82-300.15,26.69-361-56.88"/><path class="cls-2" d="M466.25,238.45c-4.64.18-11.87-6.51-12.05-11.16"/><path class="cls-2" d="M1403.7,570.48c-1.46,6.83-13.88,14.89-20.71,13.43"/><path class="cls-2" d="M1895.55,938.32C1722.15,970,1414.61,757.3,1383,583.91"/><path class="cls-2" d="M1304.18,264.47c.06,10.44-15.51,26.18-25.95,26.24"/><path class="cls-2" d="M1295.8,254.2c3.79,10.81-6.75,32.72-17.56,36.51"/><path class="cls-2" d="M1302.55,250.19c3.24,13-11.35,37.27-24.31,40.51"/><path class="cls-2" d="M1285.37,247.67c7.18,10,2.9,35.86-7.14,43"/><path class="cls-2" d="M1290.66,269.69c1.72,6.69-5.73,19.29-12.42,21"/><path class="cls-2" d="M1023.77,326.05c45.59,35.82,60.25,157.93,24.44,203.52"/><path class="cls-2" d="M1023.77,326.05c96.4,14.57,219.14,181,204.57,277.44"/><path class="cls-2" d="M1193.75,508.51c24.92,2.21,59,42.9,56.78,67.81"/><path class="cls-2" d="M1023.77,326.05c95.4,4.7,231.46,154.87,226.75,250.27"/><path class="cls-2" d="M1895.55,938.32c-72.29,18.86-209-61.29-227.86-133.58"/><path class="cls-2" d="M1338.87,491.38c-.23,8.44-13.25,20.75-21.69,20.52"/><path class="cls-2" d="M1023.77,326.05c95.85-21.51,271.89,90,293.41,185.84"/><path class="cls-2" d="M1023.77,326.05c51.18-4.05,134,66.63,138.07,117.8"/><path class="cls-2" d="M1175.23,423.76c1.34,6.7-6.69,18.76-13.39,20.1"/><path class="cls-2" d="M1174.63,423.3c1.56,6.67-6.11,19-12.78,20.56"/><path class="cls-2" d="M1895.55,938.32c-83.75,105.54-367.67,138.22-473.21,54.47"/><path class="cls-2" d="M912.32,69.66C901.91,66.5,891,46.14,894.17,35.72"/><path class="cls-2" d="M1023.77,326.05c90,4.06,219,145.22,215,235.27"/><path class="cls-2" d="M1023.77,326.05C676.58,178.54,377.07-563.53,524.59-910.72"/><path class="cls-2" d="M1023.77,326.05c45.59,35.81,60.26,157.91,24.45,203.51"/><path class="cls-2" d="M934.54,135.47c-291.23-127.25-537.2-755-410-1046.19"/><path class="cls-2" d="M1198.56,387.2c-3.36-35.23,44.45-93.13,79.68-96.49"/><path class="cls-2" d="M1290.67,269.7c1.72,6.69-5.74,19.29-12.43,21"/><path class="cls-2" d="M891.71,12.62c-.76,4.15-8.12,9.22-12.27,8.46"/><path class="cls-2" d="M912.32,69.66c-16.29-3.14-36-32.29-32.88-48.58"/><path class="cls-2" d="M891.71,12.62c-.65,4.22-8,9.56-12.18,8.9"/><path class="cls-2" d="M912.32,69.66c-16.19-3.07-35.86-32-32.79-48.14"/><path class="cls-2" d="M1023.77,326.05c-11.52,59.67-118.31,131.91-178,120.39"/><path class="cls-2" d="M649.21,531.2c22.36-56.27,140.31-107.12,196.58-84.76"/><path class="cls-2" d="M924.1,520.5c-30.47.85-77.45-43.58-78.3-74.05"/><path class="cls-2" d="M1766.66,944.09c-2.93,3.76-13,5-16.72,2.09"/><path class="cls-2" d="M1770,950.18c-4.82,3.22-16.88.83-20.11-4"/><path class="cls-2" d="M1767.8,959.07c-6.15,1-16.87-6.73-17.87-12.88"/><path class="cls-2" d="M912.32,69.66C901,63.13,893.77,36.32,900.3,25"/><path class="cls-2" d="M891.71,12.62c4.19.75,9.35,8.17,8.59,12.36"/><path class="cls-2" d="M438.52,235.72c12-3.84,35.71,8.38,39.55,20.36"/><path class="cls-2" d="M1284.43,951c24.74-72.05,169.92-143,242-118.29"/><path class="cls-2" d="M1494.52,865.24c-.13-12.88,19-32.39,31.88-32.52"/><path class="cls-1" d="M1407.15,738.53c11.7,22.21-4.07,73.08-26.28,84.78"/><path class="cls-2" d="M1284.43,951c-80.72-58.28-114.37-266.79-56.09-347.51"/><path class="cls-2" d="M554.09,381.51c6.32-3.81,21.51,0,25.31,6.27"/><path class="cls-2" d="M1142.55,700.22c-40.07,50.64-176.13,66.5-226.77,26.43"/><path class="cls-2" d="M123,589.06c-14.1,17.26-61.14,22-78.39,7.9"/><path class="cls-2" d="M11.64,593.32c7.32-5.87,27.1-3.69,33,3.64"/><path class="cls-3" d="M1346.07,691.38c15.67-1.21,41,20.47,42.19,36.14"/><path class="cls-3" d="M880.72,7.88c1.28,2.9-1.16,9.18-4.06,10.46"/><path class="cls-3" d="M880.72,7.88c1.28,2.9-1.16,9.18-4.06,10.46"/><path class="cls-3" d="M880.72,7.88c3-.18,7.82,4.08,8,7.1"/><path class="cls-3" d="M880.72,7.88c4.67.57,10.82,8.42,10.25,13.08"/><path class="cls-3" d="M880.72,7.88c1.35,3-1.08,9.42-4,10.76"/><path class="cls-3" d="M880.72,7.88c3.41-1.28,10.44,1.92,11.72,5.33"/><path class="cls-3" d="M869-1.82c7.3-.58,19.12,9.5,19.7,16.8"/><path class="cls-3" d="M925,895.15c-36.22-57.3-4.6-197.57,52.7-233.79"/><path class="cls-3" d="M1461.23,705.21c-7.45,7.37-29.69,7.25-37.06-.2"/><path class="cls-3" d="M1089.36,774.78c-50.44-9.34-112.09-99-102.75-149.46"/><path class="cls-3" d="M1226.28,780.94c-5.61-3-9.53-15.93-6.53-21.54"/><path class="cls-3" d="M1359,739c-27.63,55.65-152.54,97.67-208.19,70"/><path class="cls-3" d="M1781.06,961.69c-9.33,3.12-28-6.18-31.13-15.5"/><path class="cls-3" d="M925,895.15c-11.75-92.07,108.73-247.79,200.8-259.54"/><path class="cls-1" d="M14.13,608.18C18,599.84,36.27,593.1,44.61,597"/><path class="cls-1" d="M454.2,227.29c10.53,1,24.85,18.26,23.87,28.79"/><path class="cls-2" d="M934.54,135.47c179.38,0,448.44,269.06,448.45,448.44"/><path class="cls-2" d="M912.32,69.66c-19.15-3.16-43.12-36.63-40-55.78"/><path class="cls-2" d="M912.32,69.66C895.5,67,874.28,37.73,877,20.91"/><path class="cls-2" d="M1284.43,951c38.64-74.34,208.1-127.89,282.43-89.26"/><path class="cls-2" d="M1616.56,884c-14.38,5.49-44.2-7.84-49.69-22.22"/><path class="cls-2" d="M1494.52,865.24c13.77-15.17,57.18-17.26,72.34-3.49"/><path class="cls-2" d="M123,589.06c-88.25,42.56-284.48-26-327-114.22"/><path class="cls-2" d="M134,565.52C48.24,615-154.57,560.58-204,474.84"/><path class="cls-2" d="M134,565.52c-22.4-26.06-16.9-98.75,9.17-121.14"/><path class="cls-2" d="M-633.65,406.39c163-147.76,629-125,776.79,38"/><path class="cls-2" d="M1284.43,951c7.67-37.77,75.84-82.92,113.61-75.25"/><path class="cls-2" d="M1494.52,865.24c-17.19,21.4-75.08,27.71-96.48,10.52"/><path class="cls-2" d="M912.32,69.66C895.5,67,874.28,37.73,877,20.91"/><path class="cls-1" d="M1191.51,791.75c-11.33,12.19-46.61,13.47-58.8,2.14"/><path class="cls-2" d="M1895.55,938.32c-137.64,57.72-430.68-62.15-488.4-199.79"/><path class="cls-2" d="M1432.31,742.8c-5.88,4.18-21,1.62-25.16-4.26"/><path class="cls-2" d="M1432.31,742.8c-5.88,4.18-21,1.62-25.16-4.26"/><path class="cls-2" d="M912.32,69.66C895,66.58,873.6,36,876.68,18.64"/><path class="cls-1" d="M1191.51,791.75c-4.15-22.1,22.78-61.47,44.88-65.61"/><path class="cls-2" d="M1309,828.37c-33,23.64-118,9.57-141.65-23.45"/><path class="cls-2" d="M891.71,12.62c-1.67,3.92-10,7.3-14,5.63"/><path class="cls-2" d="M912.32,69.66c-17.2-3.37-37.94-34.21-34.58-51.41"/><path class="cls-2" d="M891.71,12.62c-3,2.5-11.23,1.76-13.73-1.23"/><path class="cls-2" d="M912.32,69.66C893.8,64.87,873.19,29.91,878,11.39"/><path class="cls-2" d="M1279.32,690.19c29.25-14.32,94.62,8.07,108.94,37.33"/><path class="cls-2" d="M1389.88,663.7c-4,5.5-18.13,7.81-23.63,3.85"/><path class="cls-2" d="M1388,655.84c-2,6.69-15,13.71-21.73,11.71"/><path class="cls-2" d="M1895.55,938.32c-143.62,59.3-448-67.19-507.28-210.8"/><path class="cls-2" d="M912.32,69.66C875,56.14,839.19-20.16,852.71-57.52"/><path class="cls-2" d="M627.49,764.69c5.81-8.89,27.86-13.52,36.76-7.71"/><path class="cls-2" d="M912.32,69.66c-36.23-11.11-73.91-82.11-62.8-118.34"/><path class="cls-2" d="M912.32,69.66c-38.43-12.93-76.68-90-63.75-128.42"/><path class="cls-2" d="M838,23.08c5.36,11.74-4.21,37.38-15.95,42.74"/><path class="cls-1" d="M1069.34,683.34c80.53-4.47,208,109.61,212.5,190.13"/><path class="cls-2" d="M1294.91,904.52c-8.82-3.59-16.67-22.22-13.07-31"/><path class="cls-2" d="M1292.72,908.77c-9.24-4.89-15.76-26.07-10.88-35.3"/><path class="cls-2" d="M1280.85,907.09c-6.53-6.92-5.93-27.1,1-33.62"/><path class="cls-2" d="M912.32,69.66c-15.75,18.1-66.54,21.63-84.64,5.88"/><path class="cls-2" d="M1478.95,699c-9.75,12.16-42.62,15.76-54.78,6"/><path class="cls-2" d="M1474.86,686.38c-6.41,13.86-36.83,25-50.69,18.63"/><path class="cls-2" d="M1895.55,938.32c-140.94,47.61-423.77-92.38-471.38-233.32"/><path class="cls-2" d="M1443,700.12c-2.78,4.74-14.07,7.67-18.8,4.88"/><path class="cls-2" d="M1250,743.85c-6.25-.83-14.39-11.46-13.56-17.71"/><path class="cls-2" d="M912.32,69.66c-40.64-11.81-83.89-90.49-72.08-131.13"/><path class="cls-3" d="M1710.75,416.5c-51.14,113.26-297.73,206.45-411,155.31"/><path class="cls-2" d="M1306.54,613.43c-2.85,10.83-23.37,22.81-34.2,20"/><path class="cls-2" d="M1305.18,603.51c-.59,12.55-20.31,30.47-32.85,29.88"/><path class="cls-2" d="M1298.51,628.84c-4.33,6.14-20,8.87-26.18,4.55"/><path class="cls-2" d="M1309.82,609.18c-2.66,12.34-25.15,26.87-37.49,24.21"/><path class="cls-3" d="M1710.75,416.5c-44.3,131.06-307.35,261.19-438.41,216.89"/><path class="cls-1" d="M965.15,602c60.89-73,261.66-91,334.61-30.15"/><path class="cls-1" d="M1656,442.36c-2.61,141.79-219.21,350.55-361,347.94"/><path class="cls-1" d="M1031.32,845.71C1073,781.89,1231.21,748.64,1295,790.3"/><path class="cls-2" d="M1313.62,813.13c-8.28-.85-19.44-14.54-18.59-22.83"/><path class="cls-1" d="M737.41,910.36C824.93,774.82,1159.5,702.79,1295,790.3"/><path class="cls-2" d="M630.74,773.58c3.38-10,23.48-20,33.51-16.6"/><path class="cls-2" d="M1023.77,326.05c155.87-4.29,396.11,223.08,400.4,379"/><path class="cls-2" d="M1185.13,787.73c11.26-18.08,55.26-28.31,73.33-17.05"/><path class="cls-2" d="M1214.68,783.27c6.24-11.28,32.5-18.83,43.78-12.6"/><path class="cls-2" d="M1214.68,783.27c-7.62,17.94-46,33.42-63.9,25.8"/><path class="cls-1" d="M1656,442.36c6.16,98.9-133,256.49-231.87,262.65"/><path class="cls-2" d="M1228.39,809.34c9.52-17.14,49.51-28.56,66.65-19"/><path class="cls-2" d="M1227.9,808.1c9.87-17,50.15-27.67,67.14-17.8"/><path class="cls-2" d="M1227.9,808.1c9.87-17,50.15-27.67,67.14-17.8"/><path class="cls-2" d="M1227.9,808.1c9.87-17,50.15-27.67,67.14-17.8"/><path class="cls-2" d="M1309,828.37c-33,23.64-118,9.57-141.65-23.45"/><path class="cls-3" d="M1588.65,840.56c-11.92,7.4-40.9.62-48.3-11.3"/><path class="cls-1" d="M1395,835.2c13.68-19.07,62.81-27.15,81.88-13.47"/><path class="cls-1" d="M1913.37,858.2c-94.59,80-356.48,58.13-436.48-36.46"/><path class="cls-1" d="M1540.35,829.27c-14.2,11.19-52.28,6.67-63.47-7.53"/><path class="cls-1" d="M1219.76,759.39c-3.86,23.73-45.24,53.53-69,49.67"/><path class="cls-2" d="M2775.64-342C2705.52.06,2087.23,408,1745.17,337.84"/><path class="cls-1" d="M1656,442.36c-3.08-38.73,50.41-101.44,89.14-104.52"/><path class="cls-2" d="M1023.77,326.05c149.71-103.19,529.07-33.41,632.26,116.3"/><path class="cls-1" d="M1191.51,791.75c9.72,30.59-21.6,91.06-52.2,100.78"/><path class="cls-1" d="M856.66,873.35c60.37-52.7,230-41.19,282.66,19.18"/><path class="cls-1" d="M1380.87,823.31c-21.16-131.22,143.94-359.8,275.17-381"/><path class="cls-3" d="M1710.75,416.5c16.87,115.19-130.61,313.28-245.8,330.15"/><path class="cls-2" d="M1519.13,746.51c-10.81,10.86-43.32,10.94-54.18.13"/><path class="cls-3" d="M1710.75,416.5c-5.77,16.11-38.6,31.63-54.71,25.86"/><path class="cls-2" d="M1023.77,326.05c128.8-1.34,324,189.86,325.35,318.66"/><path class="cls-3" d="M1710.75,416.5c3.85-15.65,33.1-33.36,48.75-29.51"/><path class="cls-3" d="M1710.75,416.5C1727,532,1578.08,729.65,1462.56,745.9"/><path class="cls-3" d="M1710.75,416.5C1727,532,1578.08,729.65,1462.56,745.9"/><path class="cls-2" d="M1023.77,326.05c146.64-141.92,579.48-134.85,721.4,11.79"/><path class="cls-2" d="M912.32,69.66C901.91,66.5,891,46.14,894.17,35.72"/><path class="cls-1" d="M1913.37,858.2C2599.44,280.58,4495,443.28,5072.6,1129.35"/><path class="cls-2" d="M-633.65,406.39c279.33-161,939.83,16.47,1100.84,295.8"/><path class="cls-2" d="M444.26,705.55c3.91-5.26,17.67-7.28,22.93-3.36"/><path class="cls-2" d="M123,589.06c91.46-46.21,298,21.66,344.19,113.13"/><path class="cls-2" d="M134,565.52c94-39.31,293.9,42.69,333.21,136.67"/><path class="cls-2" d="M1005.07,645.89c3.68-9.31,23.17-17.76,32.48-14.08"/><path class="cls-2" d="M1023.77,326.05c63.91,58.4,72.17,241.85,13.78,305.75"/><path class="cls-1" d="M1037.55,631.81c51.45,13.39,108.55,110.64,95.16,162.09"/><path class="cls-2" d="M649.21,531.2C747,473.66,980,534,1037.55,631.81"/><path class="cls-2" d="M924.1,520.5c45-.43,113,66.36,113.46,111.31"/><path class="cls-2" d="M912.32,69.66c-17.4-3.13-38.8-33.92-35.67-51.32"/><path class="cls-2" d="M912.32,69.66c-17.4-3.13-38.8-33.92-35.67-51.32"/><path class="cls-2" d="M861.14,545.76c8.82-7.06,32.62-4.42,39.68,4.4"/><path class="cls-2" d="M649.21,531.2c54.11-46.53,205.07-35.15,251.6,19"/><path class="cls-2" d="M1023.77,326.05c20.23,69.41-53.54,203.88-123,224.11"/><path class="cls-2" d="M1308.76,937.61c-6.39-8.28-3.56-30.3,4.72-36.7"/><path class="cls-2" d="M912.32,69.66C895.5,67,874.28,37.73,877,20.91"/><path class="cls-2" d="M912.32,69.66c-15.66-6.22-29.82-39-23.6-54.68"/><path class="cls-2" d="M912.32,69.66C898.31,64.19,885.5,35,891,21"/><path class="cls-2" d="M912.32,69.66c-15.27-7.31-27.2-41.18-19.89-56.45"/><path class="cls-2" d="M1023.77,326.05c-36.09,186.54-370,412.22-556.58,376.13"/><path class="cls-2" d="M649.21,531.2c-2.21,70.6-111.42,173.19-182,171"/><path class="cls-2" d="M1023.77,326.05C871.31,525.84,342.94,596.84,143.15,444.38"/><path class="cls-2" d="M649.21,531.2C530.63,615.05,227,563,143.15,444.38"/><path class="cls-2" d="M1325.66,936c-9.45-4.59-16.75-25.65-12.17-35.1"/><path class="cls-2" d="M859.26-28.67C867.33-24,872.49-5,867.86,3.08"/><path class="cls-2" d="M912.32,69.66c-22.21-4.42-48.89-44.37-44.46-66.58"/><path class="cls-2" d="M912.32,69.66C888.91,55.2,875.48-1.61,889.93-25"/><path class="cls-2" d="M912.32,69.66c-36.23-11.11-73.91-82.11-62.8-118.34"/><path class="cls-2" d="M912.32,69.66c-13.59-5.58-25.62-34.33-20-47.92"/><path class="cls-2" d="M793.43,138c-5.65-19.35,14.91-56.84,34.26-62.48"/><path class="cls-2" d="M785.07,120.6c-.49-17.53,25.07-44.57,42.61-45.06"/><path class="cls-1" d="M823.58,914.79c-1.67-14.9,18.17-39.77,33.08-41.44"/><path class="cls-1" d="M840.74,906.31c-3.41-9.78,6.14-29.55,15.92-33"/><path class="cls-2" d="M59.48,1545.71c25-293.91,503.27-697.32,797.18-672.36"/><path class="cls-2" d="M1023.77,326.05c76,142.88-24.23,471.26-167.11,547.29"/><path class="cls-2" d="M1023.77,326.05c101.3,54.86,171,289.1,116.11,390.41"/><path class="cls-2" d="M1142.55,700.22c2.71,3.78,1.11,13.52-2.67,16.24"/><path class="cls-2" d="M1116.34,736.45c.71-8.71,14.83-20.7,23.54-20"/><path class="cls-2" d="M1023.77,326.05c153.19,7.39,371.89,248.27,364.49,401.47"/><path class="cls-2" d="M1279.32,690.19c29.25-14.32,94.62,8.07,108.94,37.33"/><path class="cls-2" d="M1005.07,645.89c-2.38,8.57-18.79,17.85-27.36,15.47"/><path class="cls-2" d="M952.8,667.63c3.73-6.23,18.67-10,24.9-6.27"/><path class="cls-1" d="M856.66,873.35c-18.19-66.61,54.44-193.8,121.05-212"/><path class="cls-2" d="M1023.77,326.05c57.85,76.27,30.21,277.45-46.06,335.3"/><path class="cls-2" d="M1432.31,742.8c-5.88,4.18-21,1.62-25.16-4.26"/><path class="cls-2" d="M1432.31,742.8c-5.88,4.18-21,1.62-25.16-4.26"/><path class="cls-2" d="M912.32,69.66c-14.54-6.38-26.79-37.75-20.41-52.29"/><path class="cls-1" d="M849,734.19c-82.76,70-311.82,50.75-381.77-32"/><path class="cls-1" d="M1037.55,631.81C937.56,760,595.34,802.18,467.19,702.18"/><path class="cls-1" d="M856.66,873.35c-16.45,31.25-88,53.46-119.25,37"/><path class="cls-1" d="M1031.32,845.71c-45.85,71.71-222.2,110.5-293.91,64.65"/><path class="cls-2" d="M59.48,1545.71C68,1283,474.76,901.84,737.41,910.36"/><path class="cls-2" d="M1185.13,787.73c1.26-12.59,22-29.59,34.63-28.33"/><path class="cls-1" d="M1171.75,791.1c3.26-15.94,32.06-35,48-31.71"/><path class="cls-2" d="M1023.77,326.05c125.86,47.47,243.45,307.48,196,433.34"/><path class="cls-1" d="M856.66,873.35c49.83-95.41,267.69-163.78,363.1-114"/><path class="cls-1" d="M856.66,873.35c-112.13,43.66-345.8-59-389.46-171.16"/><path class="cls-2" d="M1023.77,326.05c159.17,5.82,389.2,253.31,383.38,412.48"/><path class="cls-1" d="M915.78,726.65c-3.43,18.87-36.88,42-55.74,38.59"/><path class="cls-2" d="M833.38,781.5c2.08-8.58,18.07-18.34,26.65-16.26"/><path class="cls-2" d="M1185.13,787.73c-2.6,11.14-23.21,23.94-34.34,21.34"/><path class="cls-1" d="M1171.75,791.1c-.6,7.79-13.18,18.56-21,18"/><path class="cls-1" d="M1029.71,707.35c3.12-12.73,26.9-27.14,39.63-24"/><path class="cls-2" d="M1023.77,326.05c80.57,62.34,107.91,276.71,45.57,357.28"/><path class="cls-1" d="M856.66,873.35c4.53-80.54,132.14-194.55,212.68-190"/><path class="cls-1" d="M915.78,726.65c5.39-43.32,78.45-100.23,121.78-94.84"/><path class="cls-1" d="M1046.78,706.43c-.11-9.13,13.43-23,22.57-23.09"/><path class="cls-1" d="M915.78,726.65c17.52,41.16-18,129.18-59.12,146.7"/><path class="cls-2" d="M1214.68,783.27c-3.76-5.79-.72-20.12,5.07-23.88"/><path class="cls-2" d="M736.27,668.62c-47.1,60.53-208.55,80.66-269.08,33.56"/><path class="cls-2" d="M1023.77,326.05c-36.09,186.54-370,412.22-556.58,376.13"/><path class="cls-2" d="M1185.13,787.73c-9.32,23.71-58.87,45.28-82.57,36"/><path class="cls-1" d="M1171.75,791.1c-7.32,20.35-48.84,39.9-69.19,32.58"/><path class="cls-2" d="M1214.68,783.27c-14.34,30.51-81.62,54.75-112.13,40.41"/><path class="cls-2" d="M1895.55,938.32c-135.71,109.77-503.94,70.86-613.71-64.85"/><path class="cls-1" d="M1366.25,667.55c16.4,7.59,29.61,43.58,22,60"/><path class="cls-2" d="M1023.77,326.05c59.59,174.13-112.23,524.72-286.36,584.3"/><path class="cls-2" d="M1023.77,326.05c63.91,58.4,72.17,241.85,13.78,305.75"/><path class="cls-2" d="M912.32,69.66c-4.91-6.5-2.52-23.62,4-28.53"/><path class="cls-2" d="M59.48,1545.71c-87.16-250.25,157.47-756.36,407.71-843.52"/><path class="cls-1" d="M937.43,28.59C937,17.43,953,0,964.18-.43"/><path class="cls-2" d="M1142.55,700.22c-40.74,25.19-139.65,1.87-164.84-38.87"/><path class="cls-2" d="M962.82,619.89c5.84-3.67,20.12-.41,23.79,5.43"/><path class="cls-2" d="M736.27,668.62c41.41-58.73,191.61-84.71,250.34-43.3"/><path class="cls-2" d="M1023.77,326.05c52.42,67.29,30.12,246.85-37.16,299.27"/><path class="cls-2" d="M1185.13,787.73c1.26-12.59,22-29.59,34.63-28.33"/><path class="cls-1" d="M1171.75,791.1c3.26-15.94,32.06-35,48-31.71"/><path class="cls-2" d="M1214.68,783.27c-3.76-5.79-.72-20.12,5.07-23.88"/><path class="cls-1" d="M915.78,726.65c52.66-90,266.59-145.92,356.56-93.26"/><path class="cls-2" d="M1298.51,628.84c-4.33,6.14-20,8.87-26.18,4.55"/><path class="cls-2" d="M1413.7,857.36c-8.17-.69-19.39-14-18.7-22.16"/><path class="cls-2" d="M1419.87,851.83c-8.3,1.65-23.22-8.33-24.87-16.62"/><path class="cls-1" d="M1656,442.36c-38.53,114.95-268.75,229.56-383.7,191"/><path class="cls-1" d="M1191.51,791.75c6.19,7.37,4.42,27.7-2.94,33.89"/><path class="cls-2" d="M1023.77,326.05c-36.09,186.54-370,412.22-556.58,376.13"/><path class="cls-1" d="M1656,442.36C1635.12,544.21,1451,665.63,1349.13,644.72"/><path class="cls-1" d="M1349.13,644.72c-62.11,2.44-158.93-87.06-161.37-149.17"/><path class="cls-2" d="M1023.77,326.05c66.7,1.1,165.09,102.8,164,169.49"/><path class="cls-1" d="M1349.13,644.72c-46.49,42.84-180.48,37.38-223.32-9.11"/><path class="cls-2" d="M1023.77,326.05c82.32,41.5,143.54,227.24,102,309.55"/><path class="cls-2" d="M1776,382c-2.3,4.29-12.2,7.27-16.49,5"/><path class="cls-2" d="M1110.71,622c5.74-.29,14.8,7.88,15.09,13.63"/><path class="cls-1" d="M1422.34,992.8c-60,297.84-596.77,654.61-894.62,594.6"/><path class="cls-1" d="M-204,474.84c63.34-75.53,271.65-93.8,347.18-30.46"/><path class="cls-1" d="M872.36,13.88c1.82.09,4.41,2.94,4.32,4.76"/><path class="cls-1" d="M879.44,21.08c-2.23-1.65-3.11-7.46-1.47-9.69"/><path class="cls-1" d="M892.44,13.21c-8.15-7.15-9.65-30.09-2.5-38.23"/><path class="cls-1" d="M891,21a1.39,1.39,0,0,1,1.32.78"/><path class="cls-1" d="M878,11.39c-8.38-4.91-13.59-24.84-8.68-33.22"/><path class="cls-1" d="M888.72,15c-4.44-4-5.08-16.71-1.06-21.15"/><path class="cls-1" d="M887.66-6.18c5.56,3.86,8.11,18,4.25,23.55"/><path class="cls-2" d="M466.25,238.45c-4.64.18-11.87-6.51-12.05-11.16"/><path class="cls-2" d="M466.25,238.45c5.89,1.16,13,11.74,11.81,17.63"/><path class="cls-2" d="M1345.7,1040.33c5.82-24.83,51.81-53.36,76.64-47.53"/><path class="cls-2" d="M1895.55,938.32c-12.46-19.59-1.77-67.66,17.82-80.13"/><path class="cls-2" d="M1895.55,938.32c-81.67,76.37-318.72,68.42-395.09-13.25"/><path class="cls-2" d="M1895.55,938.32c-125.94,79.94-434.75,10.93-514.68-115"/><path class="cls-2" d="M1895.55,938.32c-101.49,93.08-393.34,80.45-486.42-21"/><path class="cls-2" d="M554.09,381.51c6.32-3.81,21.51,0,25.31,6.27"/><path class="cls-2" d="M1895.55,938.32c-84.28,78.35-328.22,69.47-406.58-14.8"/><path class="cls-2" d="M1895.55,938.32c-98.86,73.69-357.7,35.93-431.39-62.93"/><path class="cls-2" d="M912.32,69.66c62.76,10.59,141,120.61,130.43,183.37"/><path class="cls-2" d="M1895.55,938.32c-99,71-354,29.16-425-69.79"/><path class="cls-2" d="M1895.55,938.32c-83.57,60.82-300.15,26.69-361-56.88"/><path class="cls-2" d="M466.25,238.45c-4.64.18-11.87-6.51-12.05-11.16"/><path class="cls-2" d="M1895.55,938.32C1722.15,970,1414.61,757.3,1383,583.91"/><path class="cls-2" d="M1023.77,326.05c45.59,35.82,60.25,157.93,24.44,203.52"/><path class="cls-2" d="M1023.77,326.05c123.41-20.27,338.94,134.44,359.21,257.85"/><path class="cls-2" d="M1023.77,326.05c96.4,14.57,219.14,181,204.57,277.44"/><path class="cls-2" d="M1193.75,508.51c24.92,2.21,59,42.9,56.78,67.81"/><path class="cls-2" d="M1895.55,938.32c-72.29,18.86-209-61.29-227.86-133.58"/><path class="cls-2" d="M1338.87,491.38c-.23,8.44-13.25,20.75-21.69,20.52"/><path class="cls-2" d="M1023.77,326.05c51.18-4.05,134,66.63,138.07,117.8"/><path class="cls-2" d="M1345.7,1040.33c5.82-24.83,51.81-53.36,76.64-47.53"/><path class="cls-2" d="M1895.55,938.32c-83.75,105.54-367.67,138.22-473.21,54.47"/><path class="cls-2" d="M1309,828.37c7.4,4.85,11.24,23.23,6.39,30.63"/><path class="cls-2" d="M1023.77,326.05c90,4.06,219,145.22,215,235.27"/><path class="cls-2" d="M1023.77,326.05C676.58,178.54,377.07-563.53,524.59-910.72"/><path class="cls-2" d="M1023.77,326.05c45.59,35.81,60.26,157.91,24.45,203.51"/><path class="cls-2" d="M1023.77,326.05c71.41-33.08,228.16,24.42,261.24,95.83"/><path class="cls-2" d="M794,704.18c3.51-10.66,24.76-21.39,35.41-17.88"/><path class="cls-2" d="M1895.55,938.32C1751.8,1341.7,931.11,1731.15,527.72,1587.4"/><path class="cls-2" d="M1260.9,539c0,8.9-13.25,22.31-22.15,22.35"/><path class="cls-2" d="M1023.77,326.05c87.14-38.32,275.32,34.91,313.64,122.05"/><path class="cls-2" d="M1023.77,326.05c141,16.68,327.44,253.18,310.75,394.17"/><path class="cls-2" d="M1290.67,269.7c1.72,6.69-5.74,19.29-12.43,21"/><path class="cls-2" d="M1023.77,326.05C1056.94,437,940.3,653.13,829.37,686.3"/><path class="cls-2" d="M1358.65,912.68c28.94-41.44,134.5-60.18,175.94-31.24"/><path class="cls-2" d="M1023.77,326.05c95.85-21.51,271.89,90,293.41,185.84"/><path class="cls-2" d="M736.27,668.62c35.65-9.42,103.27,29.91,112.69,65.57"/><path class="cls-2" d="M1023.77,326.05c-11.52,59.67-118.31,131.91-178,120.39"/><path class="cls-2" d="M1766.66,944.09c-2.93,3.76-13,5-16.72,2.09"/><path class="cls-2" d="M912.32,69.66C901,63.13,893.77,36.32,900.3,25"/><path class="cls-2" d="M1023.77,326.05c87,42.71,153.43,237.29,110.71,324.29"/><path class="cls-2" d="M891.71,12.62c4.19.75,9.35,8.17,8.59,12.36"/><path class="cls-2" d="M1023.77,326.05c284.35-71.49,818.1,247.8,889.59,532.14"/><path class="cls-1" d="M1407.15,738.53c11.7,22.21-4.07,73.08-26.28,84.78"/><path class="cls-1" d="M1407.15,738.53c-62.77,8.75-170.05-72.27-178.8-135"/><path class="cls-2" d="M527.2,386.57c10.68-10.2,42-9.47,52.2,1.21"/><path class="cls-2" d="M1056.46,834.49c-2.54-5.41,1.78-17.34,7.2-19.87"/><path class="cls-2" d="M1023.77,326.05c96.4,14.57,219.14,181,204.57,277.44"/><path class="cls-2" d="M912.32,69.66c-1,48.8-75.72,120.49-124.52,119.49"/><path class="cls-2" d="M1023.77,326.05C1067.23,393,1032.06,558.5,965.15,602"/><path class="cls-2" d="M940.78,593c6.67-3.07,21.3,2.32,24.37,9"/><path class="cls-2" d="M1023.77,326.05c71.41-33.08,228.16,24.42,261.24,95.83"/><path class="cls-2" d="M722.43,648.41c4-4.43,16.64-5.06,21.06-1.06"/><path class="cls-2" d="M1023.77,326.05C1067.23,393,1032.06,558.5,965.15,602"/><path class="cls-3" d="M869-1.82c12.54,2.48,27.63,25,25.15,37.55"/><path class="cls-3" d="M925,895.15c119-79.94,417.4-21.35,497.33,97.65"/><path class="cls-3" d="M1231.37,1107.24c86.59-186.21,495.79-335.63,682-249"/><path class="cls-3" d="M925,895.15C1046.08,786,1391.35,804,1500.46,925.08"/><path class="cls-3" d="M925,895.15c76.81-105.54,350.32-148.64,455.86-71.83"/><path class="cls-3" d="M925,895.15c101.25-92.4,391.73-79.11,484.12,22.14"/><path class="cls-3" d="M925,895.15c190.28-205.06,783.3-227.23,988.36-36.95"/><path class="cls-3" d="M545.23,385.64c7.26-6.41,27.77-5.12,34.18,2.14"/><path class="cls-3" d="M869-1.82c9.74,1.42,22.23,18.16,20.81,27.9"/><path class="cls-3" d="M925,895.15c118.47-107.12,456.85-90.09,564,28.37"/><path class="cls-3" d="M925,895.15c103.88-111.78,427.37-123.63,539.15-19.75"/><path class="cls-3" d="M1051.78,221.18c4.57,8.18-.85,27.29-9,31.85"/><path class="cls-3" d="M420.72,205.14c11.13-2.27,31.22,11,33.48,22.15"/><path class="cls-3" d="M925,895.15c103.79-114.43,431.11-130.4,545.54-26.62"/><path class="cls-3" d="M925,895.15c119.17-124.66,484.92-132.88,609.58-13.71"/><path class="cls-3" d="M546.1,395c5.23-8.1,25.22-12.4,33.31-7.17"/><path class="cls-3" d="M1420.7,562.24c-3.21,11.88-25.84,24.87-37.72,21.66"/><path class="cls-3" d="M1389.21-71.1c50.17,94.56-16.42,311.64-111,361.8"/><path class="cls-3" d="M76,594.82c-5.85,6.71-24.69,8-31.39,2.14"/><path class="cls-3" d="M925,895.15c-48.48-97.76,25.44-317.1,123.2-365.58"/><path class="cls-3" d="M1408.54,607.24c-9.78.44-25.11-13.56-25.55-23.33"/><path class="cls-3" d="M925,895.15c2.34-119,184.34-294,303.34-291.65"/><path class="cls-3" d="M925,895.15c1.34-128.87,196.65-320.16,325.51-318.82"/><path class="cls-3" d="M1408.54,607.24c91.33-12.33,246.83,106.17,259.15,197.51"/><path class="cls-3" d="M1408.54,607.24c-37.34-.8-92.15-58-91.36-95.34"/><path class="cls-3" d="M1408.54,607.24c-82,16.66-230-81.37-246.69-163.38"/><path class="cls-3" d="M925,895.15c119-79.94,417.4-21.35,497.33,97.65"/><path class="cls-3" d="M1202.6,386.34c-4-34.25,41.38-91.63,75.64-95.63"/><path class="cls-3" d="M869-1.82c12.54,2.48,27.63,25,25.15,37.55"/><path class="cls-3" d="M1329.38,892.42c-9.47-3.89-17.84-23.95-13.95-33.42"/><path class="cls-3" d="M925,895.15c-4-129.51,184.23-329.8,313.74-333.82"/><path class="cls-3" d="M925,895.15C876.53,797.39,950.46,578,1048.22,529.56"/><path class="cls-3" d="M925,895.15c-22.65-166.65,193.35-450.61,360-473.26"/><path class="cls-3" d="M869-1.82c3.81,2.47,5.82,11.89,3.34,15.7"/><path class="cls-3" d="M11.81,593.31c7.29-5.83,27-3.65,32.8,3.64"/><path class="cls-3" d="M925,895.15c-60.9-22.64-118.28-147.95-95.64-208.84"/><path class="cls-3" d="M869-1.82c6.13,3,10.9,16.6,7.94,22.73"/><path class="cls-3" d="M925,895.15C483.75,614.06,243.5-469.46,524.59-910.72"/><path class="cls-3" d="M925,895.15c-6.93-171.89,240.52-440.11,412.4-447"/><path class="cls-3" d="M439.74,722.7c1.39-9.59,17.86-21.9,27.45-20.52"/><path class="cls-3" d="M1422.53,722.81c56.66-1.08,143.26,82.28,144.34,138.94"/><path class="cls-3" d="M925,895.15c46.92-116.89,292.63-221.84,409.52-174.92"/><path class="cls-3" d="M-31.77,455.62c32.73-37.23,137.68-44,174.91-11.25"/><path class="cls-3" d="M1422.53,722.81c25.69,35.49,11,127.25-24.49,152.94"/><path class="cls-3" d="M1291.68,254.91c4.47,9.85-3.6,31.33-13.45,35.8"/><path class="cls-3" d="M869-1.82c6.13,3,10.9,16.6,7.94,22.73"/><path class="cls-3" d="M925,895.15C894.85,820,962.38,662,1037.55,631.81"/><path class="cls-3" d="M925,895.15c21.29-61.79,145.91-122.54,207.71-101.25"/><path class="cls-3" d="M925,895.15c65.11-127.75,354.39-221.72,482.14-156.61"/><path class="cls-3" d="M880.72,7.88c2.39,2.9,1.62,10.82-1.28,13.2"/><path class="cls-3" d="M880.72,7.88c2.49,3,1.78,11.15-1.19,13.65"/><path class="cls-3" d="M869-1.82C874.64.74,879.24,13,876.68,18.64"/><path class="cls-3" d="M1227.09,756.23c-4.16-7.88,1.43-25.94,9.31-30.09"/><path class="cls-3" d="M791.3,710.56c16.26-6.81,50.86,7.37,57.66,23.63"/><path class="cls-3" d="M1154.18,825.23c-1.42-6.71,6.51-18.9,13.21-20.32"/><path class="cls-3" d="M880.72,7.88c1.48,2.67-.3,8.89-3,10.37"/><path class="cls-3" d="M880.72,7.88A4,4,0,0,1,878,11.39"/><path class="cls-3" d="M869-1.82c5.56,2.5,10.14,14.6,7.64,20.16"/><path class="cls-3" d="M869-1.82c5.56,2.5,10.14,14.6,7.64,20.16"/><path class="cls-3" d="M925,895.15C851.17,831,836.66,624,900.82,550.16"/><path class="cls-3" d="M1782.46,949c-7.06,6-26.57,4.29-32.52-2.77"/><path class="cls-3" d="M1308.7,937.66c-6.39-8.31-3.52-30.35,4.78-36.74"/><path class="cls-3" d="M1423.06,730.91c-7.64,6.28-28.51,4.25-34.79-3.39"/><path class="cls-3" d="M869-1.82c6.13,3,10.9,16.6,7.94,22.73"/><path class="cls-3" d="M869-1.82c7.3-.58,19.12,9.5,19.7,16.8"/><path class="cls-3" d="M869-1.82C878-1.66,891.13,12,891,21"/><path class="cls-3" d="M869-1.82c7.69-1.68,21.74,7.34,23.42,15"/><path class="cls-3" d="M1776.83,967.27c-9.59,1.16-25.73-11.48-26.89-21.08"/><path class="cls-3" d="M1346.07,691.38c-.73-8.8,11.38-23.1,20.18-23.83"/><path class="cls-3" d="M304.25,571.39c58.75-6.43,156.51,72,162.94,130.79"/><path class="cls-3" d="M304.25,571.39C246.63,578.21,150,502,143.15,444.38"/><path class="cls-3" d="M925,895.15C841.72,1878.69-758.53,3229.08-1742.08,3145.8"/><path class="cls-3" d="M869-1.82c11.62-.9,30.39,15.19,31.28,26.8"/><path class="cls-3" d="M869-1.82c.75,1.21.05,4.15-1.16,4.9"/><path class="cls-3" d="M925,895.15C984.13,769,1262.09,668.39,1388.27,727.52"/><path class="cls-3" d="M925,895.15c-7.07-90.86,118.62-237.74,209.48-244.8"/><path class="cls-3" d="M1268,599c-59.61-63.69-53.49-248.64,10.2-308.25"/><path class="cls-3" d="M802.49,128.86c9.12,15,.31,51.16-14.69,60.28"/><path class="cls-3" d="M1782.5,948.56c-7,6-26.52,4.62-32.56-2.37"/><path class="cls-3" d="M831.82-42.9c16.4,2,38,29.57,36,46"/><path class="cls-3" d="M925,895.15c11.79,89.2-104.33,240.7-193.53,252.49"/><path class="cls-3" d="M869-1.82c9.37.06,23.32,14.2,23.26,23.56"/><path class="cls-3" d="M869-1.82c4.43.85,9.8,8.78,9,13.21"/><path class="cls-3" d="M802.49,128.86c-5.63-15.7,9.48-47.7,25.19-53.33"/><path class="cls-3" d="M839.4,893.74c-.63-7.53,9.73-19.77,17.26-20.39"/><path class="cls-3" d="M869-1.82c5.76,2.27,11,14.31,8.73,20.07"/><path class="cls-3" d="M1184.14,785.45c-77.29,56.78-278.4,26-335.18-51.26"/><path class="cls-3" d="M1359,739c52.22-14.75,152.68,41.47,167.43,93.69"/><path class="cls-3" d="M925,895.15c7.24-78.71,136.16-185.92,214.87-178.69"/><path class="cls-3" d="M959.16,683.75c-.77-8.19,10.36-21.63,18.55-22.4"/><path class="cls-3" d="M638,782c.25-10.25,16-25.25,26.26-25"/><path class="cls-3" d="M869-1.82c8.42-.74,22.15,10.78,22.89,19.19"/><path class="cls-3" d="M959.11,893.95c-136.74,60-431.89-55-491.92-191.76"/><path class="cls-3" d="M1089.36,774.78c-26.83,66.25-166.45,125.4-232.7,98.57"/><path class="cls-3" d="M1089.36,774.78c-43.27,97.51-254.44,178.85-351.95,135.58"/><path class="cls-3" d="M1089.36,774.78c-56.2,40-200.43,15.61-240.4-40.59"/><path class="cls-3" d="M1662.45,938.07c19.12-15.87,71.61-11,87.48,8.12"/><path class="cls-3" d="M925,895.15c31.8-86.1,208.65-167.55,294.75-135.75"/><path class="cls-3" d="M1575.11,927.48c279.11-139.63,907.23,69.59,1046.86,348.71"/><path class="cls-3" d="M845.93,792.72c-2.67-8.32,5.79-24.8,14.11-27.48"/><path class="cls-3" d="M1169.67,817.58c-5.48,2.07-16.81-3-18.88-8.51"/><path class="cls-3" d="M1089.36,774.78c-22.29-14.29-34.3-69.15-20-91.44"/><path class="cls-3" d="M1359,739c-11.32,22.85-62.56,40.15-85.41,28.83"/><path class="cls-3" d="M869-1.82C873.15,21.1,845,61.69,822,65.82"/><path class="cls-3" d="M1089.36,774.78c2.83,13.11-12.59,37-25.7,39.83"/><path class="cls-3" d="M1089.36,774.78c-139,109.91-512.25,66.36-622.17-72.59"/><path class="cls-3" d="M925,895.15c21.22-49.8,127.75-92.68,177.55-71.46"/><path class="cls-3" d="M925,895.15c67-75.7,281.13-88.71,356.83-21.68"/><path class="cls-3" d="M925,895.15c27.94-62.37,163.41-114,225.78-86.08"/><path class="cls-3" d="M925,10.08c4.47,8-.76,26.59-8.71,31.05"/><path class="cls-3" d="M925,895.15c61.8-137.86,361.3-251.94,499.16-190.14"/><path class="cls-3" d="M925,895.15c-35.55-31.85-41.08-132.95-9.23-168.5"/><path class="cls-3" d="M1213.62,760.68c-2.35-11.46,11.31-32.19,22.78-34.55"/><path class="cls-3" d="M1184.14,785.45c-71.53,7.48-190.05-88.6-197.53-160.13"/><path class="cls-3" d="M925,895.15C874.4,828.48,898.49,652.57,965.15,602"/><path class="cls-3" d="M925,895.15c31.8-86.1,208.65-167.55,294.75-135.75"/><path class="cls-3" d="M1089.36,774.78c1.49-82.67,127.73-204.45,210.4-203"/><path class="cls-3" d="M1089.36,774.78c8.32-64.87,118.1-149.71,183-141.39"/><path class="cls-3" d="M1351.05,838.81c8.07-9.51,34.44-11.67,43.95-3.6"/><path class="cls-3" d="M925,895.15c53-95,275.05-157.88,370-104.85"/><path class="cls-3" d="M638,782c.25-10.25,16-25.25,26.26-25"/><path class="cls-3" d="M1359,739c-13.77,26.43-74.08,45.42-100.51,31.65"/><path class="cls-3" d="M1359,739c-27.63,55.65-152.54,97.67-208.19,70"/><path class="cls-3" d="M925,895.15c27.94-62.37,163.41-114,225.78-86.08"/><path class="cls-3" d="M1154.18,825.23c-1.42-6.71,6.51-18.9,13.21-20.32"/><path class="cls-3" d="M1268,599c-60,61.18-241.71,63-302.89,3"/><path class="cls-3" d="M1089.36,774.78c86.9-68.11,319.41-39.94,387.52,47"/><path class="cls-3" d="M940.74,593c6.68-3.08,21.33,2.32,24.41,9"/><path class="cls-3" d="M925,895.15c-22.65-166.65,193.35-450.61,360-473.26"/><path class="cls-3" d="M925,895.15c52.57-275.49,544.67-609.88,820.16-557.3"/><path class="cls-3" d="M925,895.15c55.65-236.76,494.26-508.44,731-452.79"/><path class="cls-3" d="M1134.82,928.66c-6.33-8.12-3.63-29.8,4.5-36.12"/><path class="cls-3" d="M1089.36,774.78c33.54,13.56,63.52,84.21,50,117.75"/><path class="cls-3" d="M790.88,644.84c-9,10-37.4,11.49-47.38,2.51"/><path class="cls-3" d="M1089.36,774.78C1030,765.06,955.43,661.37,965.15,602"/><path class="cls-3" d="M925,895.15c78.29-137.69,402.25-226.79,539.94-148.5"/><path class="cls-3" d="M925,895.15C959.75,760.24,1214.22,610,1349.13,644.72"/><path class="cls-3" d="M1214.94,488c-3.92,7-20.23,11.51-27.18,7.59"/><path class="cls-3" d="M1112.55,638.41c2.09-3.21,10-4.9,13.26-2.81"/><path class="cls-3" d="M1746.71,396.54c.65-4.47,8.32-10.2,12.79-9.55"/><path class="cls-3" d="M925,895.15c77.66-137.36,400.19-226.91,537.55-149.25"/><path class="cls-3" d="M925,895.15c77.66-137.36,400.19-226.91,537.55-149.25"/><path class="cls-3" d="M1290.07,1055.06c-8.87-7.24-11.31-31.4-4.07-40.27"/><path class="cls-3" d="M1777.86,318.5c-2.67,10.41-22.29,22-32.69,19.34"/><path class="cls-2" d="M1521.35,946.58c-8.48-.12-21-13-20.89-21.5"/><path class="cls-2" d="M1416.16,932.11c-4.37-1.56-8.59-10.46-7-14.83"/><path class="cls-2" d="M1895.55,938.32c-83.75,105.54-367.67,138.22-473.21,54.47"/><path class="cls-2" d="M554.09,381.51c6.32-3.81,21.51,0,25.31,6.27"/><path class="cls-2" d="M1502.41,948.88c-7.76-2.38-15.82-17.6-13.44-25.36"/><path class="cls-2" d="M1479.89,890.63c-6.19.1-15.63-9-15.73-15.24"/><path class="cls-2" d="M912.32,69.66c62.76,10.59,141,120.61,130.43,183.37"/><path class="cls-2" d="M1490.91,880c-6.37,1.77-18.58-5.12-20.35-11.49"/><path class="cls-2" d="M1895.55,938.32c-83.57,60.82-300.15,26.69-361-56.88"/><path class="cls-2" d="M1403.7,570.48c-1.46,6.83-13.88,14.89-20.71,13.43"/><path class="cls-2" d="M1023.77,326.05c45.59,35.82,60.25,157.93,24.44,203.52"/><path class="cls-2" d="M1023.77,326.05c96.4,14.57,219.14,181,204.57,277.44"/><path class="cls-2" d="M1023.77,326.05c95.4,4.7,231.46,154.87,226.75,250.27"/><path class="cls-2" d="M1895.55,938.32c-72.29,18.86-209-61.29-227.86-133.58"/><path class="cls-2" d="M1023.77,326.05c95.85-21.51,271.89,90,293.41,185.84"/><path class="cls-2" d="M1023.77,326.05c51.18-4.05,134,66.63,138.07,117.8"/><path class="cls-2" d="M1023.77,326.05c90,4.06,219,145.22,215,235.27"/><path class="cls-2" d="M1023.77,326.05C676.58,178.54,377.07-563.53,524.59-910.72"/><path class="cls-2" d="M1023.77,326.05c45.59,35.81,60.26,157.91,24.45,203.51"/><path class="cls-2" d="M1023.77,326.05c71.41-33.08,228.16,24.42,261.24,95.83"/><path class="cls-2" d="M1198.56,387.2c-3.36-35.23,44.45-93.13,79.68-96.49"/><path class="cls-2" d="M1567.53,901.92c-10.69,2.49-30.45-9.79-32.95-20.48"/><path class="cls-2" d="M924.1,520.5c-30.47.85-77.45-43.58-78.3-74.05"/><path class="cls-2" d="M1279.32,690.19c29.25-14.32,94.62,8.07,108.94,37.33"/><path class="cls-2" d="M1388,655.84c-2,6.69-15,13.71-21.73,11.71"/><path class="cls-2" d="M891.71,12.62c4.19.75,9.35,8.17,8.59,12.36"/><path class="cls-2" d="M1279.32,690.19c-36.94,21-123.84-2.91-144.84-39.85"/><path class="cls-2" d="M962.82,619.89c-3.12-4.05-1.72-14.81,2.33-17.93"/><path class="cls-2" d="M1023.77,326.05c71.41-33.08,228.16,24.42,261.24,95.83"/><path class="cls-2" d="M1284.43,951c38-48.39,167.63-63.95,216-25.93"/><path class="cls-2" d="M1392.28,833.82c-4.38.18-11.23-6.12-11.41-10.51"/><path class="cls-2" d="M1416.16,932.11c-4.37-1.56-8.59-10.46-7-14.83"/><path class="cls-2" d="M1895.55,938.32c-83.75,105.54-367.67,138.22-473.21,54.47"/><path class="cls-2" d="M557.9,382.47c5.36-3.24,18.27-.05,21.51,5.31"/><path class="cls-2" d="M1502.26,941.45c-6.24-.93-14.22-11.68-13.29-17.93"/><path class="cls-2" d="M1480.12,891c-6.31.07-15.89-9.29-16-15.61"/><path class="cls-2" d="M912.32,69.66c62.76,10.59,141,120.61,130.43,183.37"/><path class="cls-2" d="M1490.91,880c-6.37,1.77-18.58-5.12-20.35-11.49"/><path class="cls-2" d="M1895.55,938.32c-83.57,60.82-300.15,26.69-361-56.88"/><path class="cls-2" d="M1895.55,938.32C1722.15,970,1414.61,757.3,1383,583.91"/><path class="cls-2" d="M1023.77,326.05c45.59,35.82,60.25,157.93,24.44,203.52"/><path class="cls-2" d="M1023.77,326.05c96.4,14.57,219.14,181,204.57,277.44"/><path class="cls-2" d="M1023.77,326.05c95.4,4.7,231.46,154.87,226.75,250.27"/><path class="cls-2" d="M1895.55,938.32c-72.29,18.86-209-61.29-227.86-133.58"/><path class="cls-2" d="M1338.87,491.38c-.23,8.44-13.25,20.75-21.69,20.52"/><path class="cls-2" d="M1023.77,326.05c51.18-4.05,134,66.63,138.07,117.8"/><path class="cls-2" d="M1023.77,326.05c90,4.06,219,145.22,215,235.27"/><path class="cls-2" d="M1023.77,326.05C676.58,178.54,377.07-563.53,524.59-910.72"/><path class="cls-2" d="M1023.77,326.05c45.59,35.81,60.26,157.91,24.45,203.51"/><path class="cls-2" d="M1023.77,326.05c71.41-33.08,228.16,24.42,261.24,95.83"/><path class="cls-2" d="M649.21,531.2c22.36-56.27,140.31-107.12,196.58-84.76"/><path class="cls-2" d="M1770,950.18c-4.82,3.22-16.88.83-20.11-4"/><path class="cls-2" d="M891.71,12.62c4.19.75,9.35,8.17,8.59,12.36"/><path class="cls-2" d="M1023.77,326.05c71.41-33.08,228.16,24.42,261.24,95.83"/><path class="cls-2" d="M1422.09,885.58c23.57-7.78,70.59,15.92,78.37,39.49"/><path class="cls-2" d="M1392.28,833.82c-4.38.18-11.23-6.12-11.41-10.51"/><path class="cls-2" d="M1416.16,932.11c-4.37-1.56-8.59-10.46-7-14.83"/><path class="cls-2" d="M1895.55,938.32c-83.75,105.54-367.67,138.22-473.21,54.47"/><path class="cls-2" d="M557.9,382.47c5.36-3.24,18.27-.05,21.51,5.31"/><path class="cls-2" d="M1502.26,941.45c-6.24-.93-14.22-11.68-13.29-17.93"/><path class="cls-2" d="M1479.89,890.63c-6.19.1-15.63-9-15.73-15.24"/><path class="cls-2" d="M1493.58,883.27c-7.55,1.66-21.37-7.19-23-14.74"/><path class="cls-2" d="M1428.8,954.75c-11.43-3.56-23.23-26-19.67-37.47"/><path class="cls-2" d="M1422.09,885.58c92.78-103.73,387.55-120.16,491.28-27.39"/><path class="cls-2" d="M545.24,385.6c7.27-6.4,27.77-5.09,34.17,2.18"/><path class="cls-2" d="M1403.7,570.48c-1.46,6.83-13.88,14.89-20.71,13.43"/><path class="cls-2" d="M1284.43,951c-53.71-93.13,5.42-313.39,98.55-367.1"/><path class="cls-2" d="M934.54,135.47c179.38,0,448.44,269.06,448.45,448.44"/><path class="cls-2" d="M1284.43,951c-80.72-58.28-114.37-266.79-56.09-347.51"/><path class="cls-2" d="M1023.77,326.05c95.85-21.51,271.89,90,293.41,185.84"/><path class="cls-2" d="M1175.23,423.76c1.34,6.7-6.69,18.76-13.39,20.1"/><path class="cls-2" d="M1174.63,423.3c1.56,6.67-6.11,19-12.78,20.56"/><path class="cls-2" d="M1284.43,951c35.94-19.22,118.69,5.85,137.91,41.79"/><path class="cls-2" d="M1732.22,201.24c-45.31,133.57-313.64,266-447.21,220.65"/><path class="cls-2" d="M1023.77,326.05C1056.94,437,940.3,653.13,829.37,686.3"/><path class="cls-2" d="M1284.43,951c-24.06,278.62-478.09,660.46-756.71,636.4"/><path class="cls-2" d="M1023.77,326.05c90,4.06,219,145.22,215,235.27"/><path class="cls-2" d="M1732.22,201.24c-29.59,128.34-266.48,276.46-394.81,246.87"/><path class="cls-2" d="M1358.65,912.68c-43.32-33.67-57.79-149.14-24.12-192.46"/><path class="cls-2" d="M1198.56,387.2c-3.36-35.23,44.45-93.13,79.68-96.49"/><path class="cls-2" d="M1338.87,491.38c-.23,8.44-13.25,20.75-21.69,20.52"/><path class="cls-2" d="M815.33,732.51c7.06-6.39,27.24-5.38,33.63,1.68"/><path class="cls-2" d="M934.54,135.47c89.13,131.2,26,461.7-105.17,550.83"/><path class="cls-2" d="M1767.8,959.07c-6.15,1-16.87-6.73-17.87-12.88"/><path class="cls-2" d="M1284.43,951C1391.66,806.66,1769,751,1913.37,858.2"/><path class="cls-2" d="M891.71,12.62c4.19.75,9.35,8.17,8.59,12.36"/><path class="cls-2" d="M448.33,242.71c8.62-3.27,26.46,4.75,29.74,13.38"/><path class="cls-2" d="M438.85,230.55c12.95-2.74,36.48,12.59,39.21,25.54"/><path class="cls-2" d="M1279.32,690.19c-36.94,21-123.84-2.91-144.84-39.85"/><path class="cls-2" d="M917.37-26.52C924.26-12.8,914,18.1,900.3,25"/><path class="cls-2" d="M1023.77,326.05c170.87,28,385.13,326.39,357.09,497.26"/><path class="cls-2" d="M1023.77,326.05c96.4,14.57,219.14,181,204.57,277.44"/><path class="cls-2" d="M936.22,612.74c3.63-7.94,21-14.41,28.93-10.78"/><path class="cls-2" d="M1732.22,201.24c-45.31,133.57-313.64,266-447.21,220.65"/><path class="cls-2" d="M1148.65,453.48c2.48,3.9.35,13.48-3.55,16"/><path class="cls-2" d="M1198.56,387.2c5.76,27.14-26.32,76.49-53.46,82.25"/><path class="cls-2" d="M1198.56,387.2c2.82,22.27-26.35,59.92-48.62,62.75"/><path class="cls-2" d="M1140.36,414.09c9.09,5.26,14.83,26.77,9.57,35.85"/><path class="cls-4" d="M556.21,561.77C550.51,506.43,625,414.88,680.32,409.19"/><path class="cls-4" d="M660.08,414.4c3-5.09,15.14-8.22,20.23-5.22"/><path class="cls-4" d="M461.34,483.41c28.95-58.64,160.33-103.17,219-74.22"/><path class="cls-4" d="M645,356.73c17.56,3.43,38.76,34.9,35.33,52.46"/><path class="cls-4" d="M967.56,478.3c-71.27,43.62-243.61,2.16-287.24-69.12"/><path class="cls-4" d="M852.71,539.75c-60.59,8.36-164-70-172.39-130.56"/><path class="cls-4" d="M578.78,329.42C615,325.07,676,372.93,680.32,409.19"/><path class="cls-4" d="M609.88,344.07c27.11-1.06,69.37,38,70.44,65.11"/><path class="cls-4" d="M578.85,329.55c36.22-4.36,97.1,43.42,101.47,79.64"/><path class="cls-4" d="M663.57,394.35c6.32-.38,16.36,8.52,16.74,14.84"/><path class="cls-4" d="M596,367.93c25.12-8.62,75.74,16.13,84.37,41.26"/><path class="cls-4" d="M593.2,382.45c22.77-12.07,75,4,87.11,26.74"/><path class="cls-1" d="M787.81,189.14c22.51,65.51-42,197.53-107.49,220"/><path class="cls-1" d="M787.81,189.14C770,157.63,790.52,83.64,822,65.82"/><path class="cls-2" d="M1148.35,445.8c4.08,5.38,2.13,19.57-3.25,23.65"/><path class="cls-2" d="M1198.56,387.2c5.76,27.14-26.32,76.49-53.46,82.25"/><path class="cls-2" d="M1148.48,453.39c2.53,3.89.51,13.52-3.38,16.05"/><path class="cls-2" d="M1148.35,445.8a4,4,0,0,1,1.58,4.15"/><path class="cls-2" d="M1148.48,453.39a3.4,3.4,0,0,1,1.45-3.45"/><path class="cls-2" d="M1198.56,387.2c2.82,22.27-26.35,59.92-48.62,62.75"/><path class="cls-2" d="M1157.06,424c3.77,6.62-.5,22.21-7.13,26"/><path class="cls-2" d="M1149.74,429.66c4.09,4,4.21,16.18.19,20.28"/><path class="cls-4" d="M501.38,609.26c3,16.9-17.95,46.7-34.85,49.66"/><path class="cls-4" d="M442.89,557.25c15.27,13.22,18.35,56,5.13,71.22"/><path class="cls-4" d="M442.89,557.25c-11.08-18.46,0-62.76,18.46-73.84"/><path class="cls-4" d="M501.38,609.26c1.47-20.46,34.36-49,54.83-47.48"/><path class="cls-3" d="M1089.36,774.78c-75.53,23.36-223.87-54.9-247.22-130.43"/><path class="cls-3" d="M1202.6,386.34c5.12,28.12-29.38,78-57.5,83.1"/><path class="cls-3" d="M1202.6,386.34c2.19,23.25-29.41,61.42-52.67,63.6"/><path class="cls-3" d="M1150.36,422.39c5.42,5.6,5.17,22.13-.43,27.55"/><path class="cls-3" d="M1158.22,424.47c3.44,6.75-1.54,22-8.29,25.47"/><path class="cls-3" d="M1161,424.12c2.94,7.39-3.73,22.88-11.12,25.82"/><path class="cls-2" d="M1149.82,421.7c5.67,5.63,5.74,22.57.11,28.25"/><path class="cls-1" d="M444.26,705.55c3.91-5.26,17.67-7.28,22.93-3.36"/><path class="cls-1" d="M1145.1,469.44c-7.27-10.18-2.9-36.34,7.27-43.61"/><path class="cls-1" d="M1148.81,426.1a3.25,3.25,0,0,1,3.56-.26"/><path class="cls-1" d="M1148.81,426.1c7.93,9.41,5.7,35.42-3.71,43.35"/><path class="cls-1" d="M1052.65,519c5.64-33.27,64-74.73,97.28-69.1"/><path class="cls-1" d="M1037.55,631.81c-19.53-25.57-10.47-93.24,15.1-112.77"/><path class="cls-1" d="M1145.1,469.44c11,54-53.57,151.4-107.55,162.37"/><path class="cls-1" d="M1155.36,449.34c2,6.07-4.18,18.13-10.26,20.1"/><path class="cls-2" d="M580.87,270.41c13.68,2.23,30.85,26.09,28.62,39.77"/><path class="cls-2" d="M557.45,242.81c10.2.84,24.25,17.39,23.42,27.6"/><path class="cls-1" d="M429.76,231.2c14.64-4.68,43.62,10.24,48.3,24.88"/><path class="cls-1" d="M391.34,215.89c10.75-4.62,33.79,4.57,38.42,15.31"/><path class="cls-1" d="M602.86,551c66.52-29.19,210.08,26.81,239.27,93.33"/><path class="cls-1" d="M1037.55,631.81c-103.1,70.78-363.91,22.3-434.69-80.79"/><path class="cls-1" d="M539.46,536.18c-14,5.21-42.89-8-48.09-22.07"/><path class="cls-1" d="M602.86,551c-15.65,9.71-53.69.81-63.4-14.84"/><path class="cls-1" d="M539.31,524.88c17.94-7.48,56.07,8.19,63.56,26.13"/><path class="cls-1" d="M602.86,551c-17.94,7.48-56.07-8.19-63.56-26.13"/><path class="cls-1" d="M143.15,444.38c113.27-70.62,389.1-6.63,459.72,106.64"/><path class="cls-1" d="M94.33,436.87c11.26-8.26,40.55-3.76,48.81,7.5"/><path class="cls-1" d="M58.33,434.45c7.68-6.71,29.28-5.26,36,2.42"/><path class="cls-1" d="M486.07,327.79c-9.54,6.24-33.2,1.3-39.45-8.23"/><path class="cls-1" d="M566.23,353.58c-1.23,1.66-5.57,2.3-7.23,1.07"/><path class="cls-1" d="M559,354.66c1.23-1.66,5.57-2.3,7.23-1.07"/><path class="cls-1" d="M538.3,344.85c6.1-2.18,18.52,3.71,20.7,9.81"/><path class="cls-1" d="M486.07,327.79c13.86-7,45.19,3.2,52.23,17.05"/><path class="cls-1" d="M464.2,354.39c13.44-9.07,47.2-2.51,56.27,10.93"/><path class="cls-1" d="M520.47,365.32c6.81-4.39,23.6-.76,28,6"/><path class="cls-1" d="M444.62,680.69c8.81-.22,22.35,12.68,22.57,21.49"/><path class="cls-1" d="M430.27,224.75c15.83-3.29,44.5,15.51,47.79,31.33"/><path class="cls-2" d="M392.74,204c11.66-3.35,34.18,9.1,37.53,20.76"/><path class="cls-1" d="M418.06,721.53c6-13.7,35.44-25.3,49.13-19.35"/><path class="cls-5" d="M507.54,626.77c-4.21-9.29,3.41-29.53,12.7-33.74"/><path class="cls-2" d="M467.19,702.18c-7-23.15,17.2-68.4,40.35-75.41"/><path class="cls-1" d="M444.26,705.55c3.91-5.26,17.67-7.28,22.93-3.36"/><path class="cls-1" d="M573.48,312c-8.09,1.64-22.7-8-24.34-16.12"/><path class="cls-1" d="M1004,613.84c10.31-3.12,30.44,7.66,33.56,18"/><path class="cls-1" d="M979.08,602.11c7.33-2.64,22.27,4.4,24.91,11.73"/><path class="cls-2" d="M1148.48,453.39c2.53,3.89.51,13.52-3.38,16.05"/><path class="cls-2" d="M1148.48,453.39a3.4,3.4,0,0,1,1.45-3.45"/><path class="cls-2" d="M1161,424.12c2.94,7.39-3.72,22.88-11.11,25.82"/><path class="cls-2" d="M1149.74,429.66c4.09,4,4.21,16.18.19,20.28"/><path class="cls-3" d="M790.88,644.84c10.15-10.35,40.91-10.64,51.26-.49"/><path class="cls-3" d="M1147.81,445.15c4.32,5.4,2.69,20-2.71,24.29"/><path class="cls-3" d="M1138.62,437.89c7.61,5,11.49,23.94,6.48,31.55"/><path class="cls-3" d="M1148.69,453.48c2.47,3.91.32,13.49-3.59,16"/><path class="cls-3" d="M1268,599c-50.49-1.31-124.25-79-122.94-129.51"/><path class="cls-3" d="M1147.81,445.15c1.38.53,2.66,3.41,2.12,4.79"/><path class="cls-3" d="M1138.62,437.89c4.67.15,11.46,7.38,11.31,12"/><path class="cls-3" d="M1148.69,453.48a3.4,3.4,0,0,1,1.24-3.54"/><path class="cls-3" d="M1268,599c-53.42-6.18-124.29-95.59-118.11-149"/><path class="cls-3" d="M1158.36,424.37c3.43,6.8-1.63,22.15-8.43,25.58"/><path class="cls-3" d="M1144.89,420.74c6.85,4.83,9.87,22.36,5,29.2"/><path class="cls-4" d="M967.56,478.3c30.8-42.15,140.23-59.16,182.37-28.36"/><path class="cls-4" d="M967.56,478.3c25.17-8.87,76.23,15.57,85.1,40.74"/><path class="cls-4" d="M967.56,478.3c44.7,16.7,86.7,108.81,70,153.51"/><path class="cls-4" d="M967.56,478.3c33.74-37.28,140.26-42.6,177.54-8.86"/><path class="cls-4" d="M466.53,658.91c8.79,8.52,9.18,34.48.66,43.27"/><path class="cls-4" d="M466.53,658.91c0,8.74-13.17,21.81-21.91,21.78"/><path class="cls-4" d="M448,628.47c18.58,10.91,30.08,55.13,19.17,73.71"/><path class="cls-4" d="M578.85,329.55C544,335,483.53,290.93,478.06,256.08"/><path class="cls-4" d="M645,356.73c-16.41-2.21-37.71-30.15-35.5-46.56"/><path class="cls-4" d="M461.34,483.41c12.14.14,30.16,18.55,30,30.7"/><path class="cls-4" d="M461.34,483.41c41.82-14.78,126.74,25.78,141.52,67.6"/><path class="cls-4" d="M461.34,483.41c23.89-7.3,70.66,17.58,78,41.47"/><path class="cls-4" d="M461.34,483.41c41.82-14.78,126.74,25.78,141.52,67.6"/><path class="cls-4" d="M461.34,483.41c-71.45,55.83-262.37,32.41-318.2-39"/><path class="cls-6" d="M461.34,483.41c-7.1,8.51-30.53,10.63-39,3.53"/><path class="cls-4" d="M578.78,329.42C544,334.9,483.54,290.9,478.06,256.08"/><path class="cls-4" d="M437.31,234.94c12.38-3.92,36.83,8.76,40.76,21.14"/><path class="cls-4" d="M437.31,234.94c-2.26.76-6.79-1.48-7.55-3.74"/><path class="cls-4" d="M596,367.93c-10,4.74-32.22-3.23-37-13.27"/><path class="cls-4" d="M596,367.93c-8.81,3.07-26.64-5.53-29.72-14.35"/><path class="cls-4" d="M596,367.93c-10,4.74-32.22-3.23-37-13.27"/><path class="cls-4" d="M596,367.93c-16.15,6.91-50.74-6.94-57.65-23.08"/><path class="cls-4" d="M593.2,382.45c-11.16,6.73-38,.08-44.74-11.08"/><path class="cls-4" d="M593.2,382.45c-18,11.12-61.61.85-72.73-17.12"/><path class="cls-7" d="M556.21,561.77c-.94,13.45-22.52,32.2-36,31.26"/><path class="cls-7" d="M556.21,561.77c3.27,22.73-25.93,61.73-48.67,65"/><path class="cls-4" d="M556.21,561.77c10.28,45.89-43.13,130.13-89,140.41"/><path class="cls-4" d="M609.88,344.07c-21.78,2.51-58.23-26.39-60.75-48.17"/><path class="cls-4" d="M609.88,344.07c-13.69.87-35.53-18.36-36.4-32"/><path class="cls-4" d="M1020.67,632.18c3.3-3.45,13.43-3.67,16.88-.37"/><path class="cls-4" d="M852.71,539.75c18.8,23,12.46,85.79-10.57,104.6"/><path class="cls-4" d="M852.71,539.75c55.38-18.56,166.29,36.68,184.84,92.06"/><path class="cls-8" d="M1158.22,424.47a1.16,1.16,0,0,1-1.17-.51"/><path class="cls-2" d="M1149.74,429.66c4.09,4,4.21,16.18.19,20.28"/><path class="cls-2" d="M1198.56,387.2c5.76,27.14-26.32,76.49-53.46,82.25"/><path class="cls-2" d="M1198.56,387.2c2.82,22.27-26.35,59.92-48.62,62.75"/><path class="cls-6" d="M466.53,658.91c2,9.58-9.31,27-18.89,29"/><path class="cls-3" d="M467.19,702.18c-6.77,1.05-18.5-7.51-19.55-14.28"/><path class="cls-2" d="M1148.65,453.48c2.48,3.9.35,13.48-3.55,16"/><path class="cls-2" d="M1198.56,387.2c5.76,27.14-26.32,76.49-53.46,82.25"/><path class="cls-2" d="M1148.65,453.48a3.42,3.42,0,0,1,1.28-3.54"/><path class="cls-2" d="M1198.56,387.2c2.82,22.27-26.35,59.92-48.62,62.75"/><path class="cls-2" d="M1149.74,429.66c4.09,4,4.21,16.18.19,20.28"/><path class="cls-2" d="M1797.06,380.42c-6.2,8.83-28.74,12.77-37.56,6.57"/><path class="cls-8" d="M1023.77,326.05c34.09,1.4,83.12,54.62,81.72,88.71"/><path class="cls-8" d="M1193.75,508.51c-36.4-1.1-89.35-57.35-88.25-93.75"/><path class="cls-3" d="M823.58,914.79c2.4,8.94-7.4,26-16.35,28.37"/><path class="cls-8" d="M1035.2,779.63c.06,10-14.8,25-24.76,25"/><path class="cls-8" d="M959.11,893.95C940.5,997.77,756.84,1125.58,653,1107"/><path class="cls-8" d="M1448.15,632.74c-4.17,8.8-23.63,15.75-32.43,11.58"/><path class="cls-3" d="M995.25,736.5c1.06-12.72,21.74-30.22,34.46-29.16"/><path class="cls-3" d="M1025.77,729.6c-.43-8.83,12.17-22.74,21-23.17"/><path class="cls-9" d="M925,895.15c61.42-252.88,532.86-540.06,785.74-478.65"/><path class="cls-3" d="M1682.72,432.13c-3.29,7.38-19.3,13.52-26.69,10.23"/><path class="cls-3" d="M1162.54,831.56c-6.25-9.93-.72-34.21,9.21-40.45"/><path class="cls-8" d="M925,895.15c97.5-101.33,395.75-107.07,497.08-9.56"/><path class="cls-3" d="M1231.37,1107.24c86.59-186.21,495.79-335.63,682-249"/><path class="cls-3" d="M3489.65,993c-342.22,288.29-1288,207.39-1576.28-134.83"/><path class="cls-3" d="M925,895.15c-35.55-31.85-41.08-132.95-9.23-168.5"/><path class="cls-8" d="M598.43,780.34c2.68-8.94,20.12-18.33,29.06-15.65"/><path class="cls-8" d="M606.35,796.33c.33-9.43,15-23.08,24.39-22.75"/><path class="cls-8" d="M1018.18,813.51c-3.37-10.18,6.84-30.51,17-33.88"/><path class="cls-2" d="M648.34,689.84c5.14-7,23.36-9.78,30.35-4.63"/><path class="cls-2" d="M1191.51,791.75c1.53-5.72,12.4-12,18.12-10.49"/><path class="cls-1" d="M652.87,700.4c2.13-8.2,17.62-17.32,25.83-15.2"/><path class="cls-8" d="M1359,739c-10.8,2.47-30.72-10-33.19-20.82"/><path class="cls-8" d="M134,565.52c-6.37,8-27.9,10.39-35.88,4"/><path class="cls-3" d="M849,734.19c-20.77,18.61-79.84,15.38-98.45-5.38"/><path class="cls-3" d="M664.24,757c11.62-22.89,63.38-39.79,86.27-28.18"/><path class="cls-8" d="M736.27,668.62c14.88,9.19,23.43,45.3,14.24,60.18"/><path class="cls-8" d="M649.21,531.2c-4.1,7.73-21.84,13.16-29.57,9.06"/><path class="cls-8" d="M791.3,710.56c9.2-.42,23.62,12.76,24,22"/><path class="cls-8" d="M1158.94,820.84c11.59-16.19,53.26-23.08,69.44-11.49"/><path class="cls-8" d="M1335.46,595.89c-2.47,7.78-17.85,15.76-25.64,13.29"/><path class="cls-8" d="M1365.88,470.11c-1.15,9.66-17.35,22.41-27,21.27"/><path class="cls-8" d="M1422.53,722.81c18,73.26-64.84,210.17-138.1,228.19"/><path class="cls-8" d="M1359,739c27.49,57.3-17.23,184.49-74.54,212"/><path class="cls-8" d="M1231.37,1107.24c-20.63-41.86,11.2-135.6,53.06-156.23"/><path class="cls-8" d="M807.54,807.68c-.07-10.4,15.44-26.11,25.84-26.18"/><path class="cls-8" d="M1227.09,756.23c1.52,8.5-9,23.52-17.46,25"/><path class="cls-8" d="M791.3,710.56c-19.39,2.62-52.41-22.54-55-41.94"/><path class="cls-3" d="M1346.07,691.38c-.73-8.8,11.38-23.1,20.18-23.83"/><path class="cls-8" d="M1231.37,1107.24c-13.46-64.37,62.91-181.1,127.28-194.55"/><path class="cls-8" d="M1097.81,612c4.58-.58,12.32,5.43,12.9,10"/><path class="cls-3" d="M1158.94,820.84c-20.55,30.5-97.12,45.42-127.62,24.87"/><path class="cls-8" d="M1508.1,677.24c-4.82,8.48-24.76,14-33.24,9.14"/><path class="cls-8" d="M769.17,725.6c.67-9.24,15.54-22.09,24.78-21.42"/><path class="cls-8" d="M1515,698c-7,7.41-28.65,8-36.05,1"/><path class="cls-8" d="M951.3,122.81c-.82,5.88-10.88,13.48-16.76,12.66"/><path class="cls-8" d="M1422.53,722.81c-159.1.4-398.36-237.65-398.76-396.76"/><path class="cls-8" d="M1359,739c-149.63-15.55-350.75-263.34-335.2-413"/><path class="cls-8" d="M1290.07,1055.06c-3.81-3.15-4.8-13.59-1.65-17.4"/><path class="cls-8" d="M1213.52,817c-6.52-7-5.82-27.24,1.16-33.76"/><path class="cls-8" d="M1226.28,780.94c-1.85,2.79-8.81,4.19-11.6,2.33"/><path class="cls-8" d="M1359,739c-20,37.71-106.58,64.26-144.29,44.25"/><path class="cls-8" d="M830.16,546.21c6.11-6.28,24.69-6.55,31-.44"/><path class="cls-8" d="M940.74,593h0"/><path class="cls-9" d="M1746.71,396.54c-3.2,11.18-24.78,23.16-36,20"/><path class="cls-8" d="M995.25,736.5c1.06,8.22-9.67,22.14-17.89,23.2"/><path class="cls-8" d="M1553.7,748.14c-7.24,6.59-28,5.61-34.57-1.63"/><path class="cls-8" d="M76,594.82c8.25-10.55,36.45-14,47-5.76"/><path class="cls-8" d="M1521.64,890.93c-10.56.28-26.83-15.13-27.12-25.7"/><path class="cls-8" d="M1648.23,902.27c-10,2.67-29-8.31-31.67-18.3"/><path class="cls-8" d="M1158.94,820.84c11.24-16.34,52.62-24,69-12.73"/><path class="cls-8" d="M1326.93,586.81c-1,7.69-14.06,17.71-21.75,16.7"/><path class="cls-8" d="M1158.94,820.84c11.24-16.34,52.62-24,69-12.73"/><path class="cls-8" d="M1746.71,396.54c3-8.76,20.52-17.47,29.28-14.52"/><path class="cls-8" d="M1346.07,691.38c-13.59,13.11-53.64,12.4-66.75-1.19"/><path class="cls-8" d="M1231.37,1107.24c9.48-36.25,78.08-76.39,114.33-66.91"/><path class="cls-8" d="M1123.56,706.92c2.46-5.14,13.85-9.15,19-6.7"/><path class="cls-8" d="M1122.8,705.83c2.83-5.07,14.68-8.44,19.75-5.61"/><path class="cls-8" d="M1332.8,607.73c-4.11,6.39-19.87,9.81-26.26,5.7"/><path class="cls-3" d="M1213.62,760.68c1.79,10.63-11.47,29.28-22.1,31.07"/><path class="cls-3" d="M1188.57,825.64c-6.19-7.37-4.42-27.7,2.94-33.89"/><path class="cls-8" d="M1096,753.25c.71-7.43,12.9-17.51,20.33-16.8"/><path class="cls-8" d="M896.63,507.27c8.14-2.85,24.61,5.09,27.46,13.23"/><path class="cls-8" d="M1588.65,840.56c9.12-6.31,32.27-2.08,38.58,7"/><path class="cls-8" d="M1351.05,838.81c-10.49,6.31-35.69.05-42-10.43"/><path class="cls-8" d="M1231.37,1107.24c99.05-166.62,497.56-268,664.18-168.91"/><path class="cls-8" d="M1422.53,722.81c137.71-51.5,421.52,77.81,473,215.51"/><path class="cls-8" d="M1359,739c147.18-67.46,469.12,52.12,536.58,199.3"/><path class="cls-8" d="M1158.94,820.84c11.24-16.34,52.62-24,69-12.73"/><path class="cls-8" d="M1169.67,817.58c-2.88-9.06,6.4-27,15.46-29.85"/><path class="cls-8" d="M519.06,374c8.5-5.51,29.52-1,35,7.48"/><path class="cls-8" d="M490.42,390.43c6.58-8.13,28.66-10.45,36.79-3.87"/><path class="cls-8" d="M435.18,213.3c11.24-1.18,29.88,13.91,31.07,25.15"/><path class="cls-8" d="M402.2,193.69c11.61-1.27,30.94,14.23,32.21,25.85"/><path class="cls-8" d="M869-1.82c-1.23,11.19-19.85,26.13-31,24.9"/><path class="cls-8" d="M763.59,127.08c8.15-3.78,26.05,2.79,29.83,10.94"/><path class="cls-8" d="M754.79,106.6c8.86-3.26,27,5.14,30.29,14"/><path class="cls-8" d="M759.61,96.1c10-.19,25.28,14.51,25.47,24.5"/><path class="cls-8" d="M1319.09,858c-7.93-3.91-14-21.68-10-29.61"/><path class="cls-8" d="M869-1.82C892,3.81,918,46.7,912.32,69.66"/><path class="cls-3" d="M1162,394.08c4.43,8.28-1.35,27.33-9.63,31.75"/><path class="cls-3" d="M1155,393.86c5.2,7.69,1.46,27-6.23,32.24"/><path class="cls-3" d="M1148.69,453.48c2.47,3.91.32,13.49-3.59,16"/><path class="cls-3" d="M1135.12,450.57c5.77,1.78,11.76,13.11,10,18.88"/><path class="cls-3" d="M433.13,717.35c3.78-9.85,24.22-18.95,34.06-15.17"/><path class="cls-3" d="M484.4,361.06c8.07-6.36,29.71-3.8,36.07,4.26"/><path class="cls-3" d="M380.92,740.75c3.58-11.27,25.87-22.8,37.14-19.22"/><path class="cls-3" d="M423.56,350.41c8.92-7.33,33.31-4.94,40.64,4"/><path class="cls-3" d="M977.62,604.47c7.15-3.4,23,2.23,26.37,9.37"/><path class="cls-5" d="M466.25,238.45c16.71-3.95,47.7,15.2,51.65,31.91"/><path class="cls-2" d="M526.46,342.19c9-4,28.53,3.47,32.54,12.47"/><path class="cls-2" d="M736.27,668.62C686.07,671.78,606,601.22,602.86,551"/><path class="cls-2" d="M517.9,270.36c11.36-1.14,30.1,14.18,31.24,25.54"/><path class="cls-2" d="M466.25,238.45c5.89,1.16,13,11.74,11.81,17.63"/><path class="cls-2" d="M517.9,270.36c11.36-1.14,30.1,14.18,31.24,25.54"/><path class="cls-2" d="M517.9,270.36c11.36-1.14,30.1,14.18,31.24,25.54"/><path class="cls-9" d="M1662.45,938.07c-19.59,15.35-72,9-87.34-10.59"/><path class="cls-9" d="M959.11,893.95c129.91-116.49,499.51-96.37,616,33.53"/><path class="cls-9" d="M1268,599c127.12,4.29,311.36,201.41,307.07,328.53"/><path class="cls-9" d="M1184.14,785.45c106.6-49.79,341.18,35.43,391,142"/><path class="cls-9" d="M1089.36,774.78c127.69-66.61,419.14,25,485.75,152.7"/><path class="cls-9" d="M1089.36,774.78c127.69-66.61,419.14,25,485.75,152.7"/><path class="cls-1" d="M680.32,409.19c-24.46,15.9-85,3.06-100.91-21.4"/><path class="cls-2" d="M736.27,668.62c-8.2,14.83-42.75,24.78-57.58,16.58"/><path class="cls-2" d="M937.43,28.59c3.19,13.24-11.87,37.88-25.11,41.07"/><circle class="cls-10" cx="680.32" cy="409.19" r="50"/><circle class="cls-10" cx="1314.28" cy="394.84" r="2"/><circle class="cls-11" cx="1588.65" cy="840.56" r="5"/><circle class="cls-11" cx="1290.07" cy="1055.06" r="5"/><circle class="cls-11" cx="951.3" cy="122.81" r="5"/><circle class="cls-11" cx="1776.83" cy="967.27" r="2"/><circle class="cls-11" cx="839.4" cy="893.74" r="2"/><circle class="cls-11" cx="925.01" cy="895.15" r="5.3"/><circle class="cls-11" cx="1105.5" cy="414.77" r="5"/><circle class="cls-11" cx="1782.46" cy="948.96" r="2"/><circle class="cls-11" cx="484.4" cy="361.06" r="5"/><circle class="cls-11" cx="1147.81" cy="445.15" r="2"/><circle class="cls-11" cx="807.23" cy="943.16" r="5"/><circle class="cls-11" cx="790.88" cy="644.84" r="3.2"/><circle class="cls-11" cx="1138.62" cy="437.89" r="2"/><circle class="cls-11" cx="1226.28" cy="780.94" r="5"/><circle class="cls-11" cx="754.79" cy="106.6" r="5"/><circle class="cls-11" cx="1420.7" cy="562.24" r="2"/><circle class="cls-11" cx="598.43" cy="780.34" r="5"/><circle class="cls-11" cx="1202.6" cy="386.34" r="5.07"/><circle class="cls-11" cx="637.99" cy="781.98" r="2"/><circle class="cls-11" cx="1161.05" cy="424.12" r="2"/><circle class="cls-11" cx="546.1" cy="394.96" r="5"/><circle class="cls-11" cx="1365.88" cy="470.11" r="5"/><circle class="cls-11" cx="1358.97" cy="739.02" r="5.18"/><circle class="cls-11" cx="1422.53" cy="722.81" r="5.01"/><circle class="cls-11" cx="1025.77" cy="729.6" r="5"/><circle class="cls-11" cx="545.23" cy="385.64" r="2"/><circle class="cls-11" cx="1648.23" cy="902.27" r="5"/><circle class="cls-11" cx="439.05" cy="236.39" r="2"/><circle class="cls-11" cx="1423.06" cy="730.91" r="2"/><circle class="cls-11" cx="11.81" cy="593.31" r="2"/><circle class="cls-11" cx="1169.67" cy="817.58" r="5"/><circle class="cls-11" cx="1213.52" cy="817.04" r="5"/><circle class="cls-11" cx="1461.23" cy="705.21" r="2"/><circle class="cls-11" cx="769.17" cy="725.6" r="5"/><circle class="cls-11" cx="637.99" cy="781.98" r="2"/><circle class="cls-11" cx="606.35" cy="796.33" r="5"/><circle class="cls-11" cx="439.74" cy="722.7" r="2"/><circle class="cls-11" cx="995.25" cy="736.5" r="5"/><circle class="cls-10" cx="1286" cy="1014.79" r="3.2"/><circle class="cls-11" cx="1158.22" cy="424.47" r="2"/><circle class="cls-11" cx="1351.05" cy="838.81" r="5"/><circle class="cls-11" cx="76.01" cy="594.82" r="5"/><circle class="cls-11" cx="807.54" cy="807.68" r="5"/><circle class="cls-11" cx="977.62" cy="604.47" r="5"/><circle class="cls-11" cx="1134.82" cy="928.66" r="2"/><circle class="cls-11" cx="98.1" cy="569.53" r="5"/><circle class="cls-11" cx="880.72" cy="7.88" r="2"/><circle class="cls-11" cx="433.13" cy="717.35" r="5"/><circle class="cls-11" cx="1346.07" cy="691.38" r="5"/><circle class="cls-11" cx="1010.44" cy="804.67" r="5"/><circle class="cls-11" cx="1329.38" cy="892.42" r="5"/><circle class="cls-11" cx="763.59" cy="127.08" r="5"/><circle class="cls-11" cx="830.16" cy="546.21" r="5"/><circle class="cls-11" cx="1448.15" cy="632.74" r="5"/><circle class="cls-11" cx="1051.78" cy="221.18" r="2"/><circle class="cls-11" cx="1682.72" cy="432.13" r="5"/><circle class="cls-11" cx="423.56" cy="350.41" r="5"/><circle class="cls-11" cx="1154.18" cy="825.23" r="2"/><circle class="cls-11" cx="1319.09" cy="857.98" r="5"/><circle class="cls-11" cx="845.93" cy="792.72" r="2"/><circle class="cls-11" cx="1162" cy="394.08" r="5"/><circle class="cls-11" cx="802.49" cy="128.86" r="2.05"/><circle class="cls-11" cx="1308.7" cy="937.66" r="2"/><circle class="cls-11" cx="869.02" cy="-1.82" r="5.01"/><circle class="cls-11" cx="940.74" cy="592.96" r="5"/><circle class="cls-11" cx="1097.81" cy="611.96" r="5"/><circle class="cls-11" cx="519.06" cy="374.03" r="5"/><circle class="cls-11" cx="420.72" cy="205.14" r="5"/><circle class="cls-11" cx="925.01" cy="10.08" r="2"/><circle class="cls-11" cx="1148.69" cy="453.48" r="5"/><circle class="cls-10" cx="1273.56" cy="767.85" r="2"/><circle class="cls-11" cx="402.2" cy="193.69" r="5"/><circle class="cls-11" cx="1135.12" cy="450.57" r="5"/><circle class="cls-11" cx="435.18" cy="213.3" r="5"/><circle class="cls-11" cx="1291.68" cy="254.91" r="2"/><circle class="cls-11" cx="1144.89" cy="420.74" r="2"/><circle class="cls-11" cx="1112.55" cy="638.41" r="2"/><circle class="cls-11" cx="1214.94" cy="487.96" r="2"/><circle class="cls-11" cx="750.51" cy="728.81" r="5.01"/><circle class="cls-11" cx="1227.09" cy="756.23" r="5"/><circle class="cls-11" cx="380.92" cy="740.75" r="5"/><circle class="cls-11" cx="1521.64" cy="890.93" r="5"/><circle class="cls-11" cx="1150.36" cy="422.39" r="2"/><circle class="cls-11" cx="304.25" cy="571.39" r="2.02"/><circle class="cls-11" cx="1155.04" cy="393.86" r="5"/><circle class="cls-11" cx="791.3" cy="710.56" r="5.01"/><circle class="cls-11" cx="452.89" cy="230.39" r="5"/><circle class="cls-11" cx="453.55" cy="223.98" r="2"/><circle class="cls-11" cx="1662.45" cy="938.07" r="6.77"/><circle class="cls-11" cx="959.11" cy="893.95" r="5"/><circle class="cls-11" cx="1268.04" cy="598.95" r="12.14"/><circle class="cls-11" cx="1184.14" cy="785.45" r="2.53"/><circle class="cls-11" cx="1089.36" cy="774.78" r="28.33"/><circle class="cls-11" cx="1575.11" cy="927.48" r="30.52"/><circle class="cls-11" cx="759.61" cy="96.1" r="5"/><circle class="cls-11" cx="1746.71" cy="396.54" r="5.04"/><circle class="cls-11" cx="1782.5" cy="948.56" r="2"/><circle class="cls-11" cx="896.63" cy="507.27" r="5"/><circle class="cls-11" cx="490.42" cy="390.43" r="5"/><circle class="cls-11" cx="1777.86" cy="318.5" r="2"/><circle class="cls-11" cx="1213.62" cy="760.68" r="5"/><circle class="cls-10" cx="964.18" cy="-0.43" r="2"/><circle class="cls-11" cx="1158.36" cy="424.37" r="2"/><circle class="cls-11" cx="1188.57" cy="825.64" r="5"/><circle class="cls-11" cx="959.16" cy="683.75" r="2"/><circle class="cls-11" cx="1018.18" cy="813.51" r="5"/><circle class="cls-11" cx="619.65" cy="540.26" r="5"/><circle class="cls-11" cx="1408.54" cy="607.24" r="5.01"/><circle class="cls-10" cx="1188.57" cy="825.64" r="2"/><circle class="cls-11" cx="1162.54" cy="831.56" r="5"/><circle class="cls-10" cx="1167.4" cy="804.92" r="2.74"/><circle class="cls-10" cx="1388.27" cy="727.52" r="7.39"/><circle class="cls-10" cx="1134.49" cy="650.34" r="2.16"/><circle class="cls-10" cx="391.34" cy="215.89" r="5"/><circle class="cls-10" cx="1317.18" cy="511.9" r="5.09"/><circle class="cls-12" cx="815.33" cy="732.51" r="5"/><circle class="cls-12" cx="1766.66" cy="944.09" r="2"/><circle class="cls-12" cx="1228.39" cy="809.34" r="5"/><circle class="cls-12" cx="1035.2" cy="779.63" r="5"/><circle class="cls-12" cx="1313.62" cy="813.13" r="2"/><circle class="cls-12" cx="1419.87" cy="851.83" r="2"/><circle class="cls-12" cx="1309.82" cy="609.18" r="5"/><circle class="cls-12" cx="1502.41" cy="948.88" r="2"/><circle class="cls-12" cx="1338.87" cy="491.38" r="5.04"/><circle class="cls-12" cx="1260.9" cy="538.98" r="2"/><circle class="cls-11" cx="1158.94" cy="820.84" r="5.01"/><circle class="cls-12" cx="1284.43" cy="951.01" r="5.05"/><circle class="cls-12" cx="1329.5" cy="547.24" r="2"/><circle class="cls-10" cx="1566.87" cy="861.75" r="2.22"/><circle class="cls-12" cx="649.21" cy="531.2" r="5"/><circle class="cls-10" cx="1069.34" cy="683.34" r="6.2"/><circle class="cls-12" cx="936.22" cy="612.74" r="2"/><circle class="cls-12" cx="833.38" cy="781.5" r="5"/><circle class="cls-12" cx="1285.37" cy="247.67" r="2"/><circle class="cls-12" cx="580.87" cy="270.41" r="2"/><circle class="cls-12" cx="1209.63" cy="781.27" r="5"/><circle class="cls-12" cx="1732.22" cy="201.24" r="5"/><circle class="cls-10" cx="867.86" cy="3.08" r="3.84"/><circle class="cls-10" cx="1500.46" cy="925.08" r="2.81"/><circle class="cls-11" cx="1515" cy="698.03" r="5"/><circle class="cls-10" cx="478.06" cy="256.08" r="5.01"/><circle class="cls-10" cx="501.38" cy="609.26" r="2.07"/><circle class="cls-10" cx="965.15" cy="601.96" r="12.28"/><circle class="cls-10" cx="1148.81" cy="426.1" r="5.02"/><circle class="cls-10" cx="602.86" cy="551.01" r="5"/><circle class="cls-12" cx="1479.89" cy="890.63" r="2"/><circle class="cls-12" cx="1502.26" cy="941.45" r="2"/><circle class="cls-11" cx="1326.93" cy="586.81" r="5"/><circle class="cls-12" cx="736.27" cy="668.62" r="5.02"/><circle class="cls-10" cx="1152.37" cy="425.84" r="5.02"/><circle class="cls-10" cx="1139.88" cy="716.46" r="3.42"/><circle class="cls-10" cx="1382.99" cy="583.91" r="5.17"/><circle class="cls-10" cx="876.65" cy="18.34" r="2.1"/><circle class="cls-10" cx="876.65" cy="18.34" r="2.1"/><circle class="cls-10" cx="876.96" cy="20.91" r="2.04"/><circle class="cls-10" cx="894.17" cy="35.72" r="5"/><circle class="cls-10" cx="899.49" cy="8.05" r="2"/><circle class="cls-10" cx="822.03" cy="65.82" r="3.68"/><circle class="cls-10" cx="418.06" cy="721.53" r="5"/><circle class="cls-10" cx="464.2" cy="354.39" r="5"/><circle class="cls-10" cx="539.31" cy="524.88" r="5"/><circle class="cls-10" cx="1464.95" cy="746.65" r="3.24"/><circle class="cls-10" cx="860.03" cy="765.24" r="3.8"/><circle class="cls-10" cx="889.83" cy="26.08" r="5"/><circle class="cls-12" cx="526.46" cy="342.19" r="5"/><circle class="cls-10" cx="879.44" cy="21.08" r="2.01"/><circle class="cls-10" cx="877.97" cy="11.39" r="2.74"/><circle class="cls-12" cx="891.71" cy="12.62" r="2"/><circle class="cls-12" cx="837.98" cy="23.08" r="5"/><circle class="cls-12" cx="1442.97" cy="700.12" r="2"/><circle class="cls-12" cx="793.43" cy="138.02" r="5"/><circle class="cls-10" cx="1366.25" cy="667.55" r="5"/><circle class="cls-11" cx="1335.46" cy="595.89" r="5"/><circle class="cls-12" cx="1358.65" cy="912.68" r="5"/><circle class="cls-12" cx="1110.71" cy="621.98" r="5"/><circle class="cls-12" cx="1280.85" cy="907.09" r="2"/><circle class="cls-10" cx="491.37" cy="514.11" r="2.05"/><circle class="cls-12" cx="1403.7" cy="570.48" r="5"/><circle class="cls-10" cx="549.14" cy="295.9" r="5"/><circle class="cls-10" cx="1031.32" cy="845.71" r="5"/><circle class="cls-10" cx="891.91" cy="17.37" r="2.48"/><circle class="cls-10" cx="1315.44" cy="859" r="5"/><circle class="cls-10" cx="1295.04" cy="790.3" r="5.56"/><circle class="cls-11" cx="447.64" cy="687.91" r="2"/><circle class="cls-10" cx="557.45" cy="242.81" r="2"/><circle class="cls-10" cx="678.7" cy="685.21" r="5.01"/><circle class="cls-10" cx="1250.52" cy="576.33" r="5.09"/><circle class="cls-12" cx="1474.86" cy="686.38" r="5"/><circle class="cls-11" cx="1332.8" cy="607.73" r="5"/><circle class="cls-11" cx="1553.7" cy="748.14" r="5"/><circle class="cls-12" cx="1432.31" cy="742.8" r="2"/><circle class="cls-12" cx="1493.58" cy="883.27" r="2"/><circle class="cls-12" cx="1480.12" cy="891" r="5"/><circle class="cls-10" cx="877.74" cy="18.25" r="2.13"/><circle class="cls-12" cx="1249.95" cy="743.85" r="2"/><circle class="cls-10" cx="840.74" cy="906.31" r="2"/><circle class="cls-10" cx="1003.99" cy="613.84" r="5"/><circle class="cls-10" cx="879.53" cy="21.52" r="2.01"/><circle class="cls-10" cx="1149.93" cy="449.94" r="5.01"/><circle class="cls-10" cx="1219.76" cy="759.39" r="5.28"/><circle class="cls-10" cx="1526.4" cy="832.72" r="2.57"/><circle class="cls-12" cx="1521.35" cy="946.58" r="2"/><circle class="cls-12" cx="1325.78" cy="718.2" r="5"/><circle class="cls-12" cx="557.9" cy="382.47" r="5"/><circle class="cls-10" cx="520.47" cy="365.32" r="5"/><circle class="cls-12" cx="1005.07" cy="645.89" r="2"/><circle class="cls-12" cx="793.95" cy="704.18" r="5"/><circle class="cls-12" cx="627.49" cy="764.69" r="5"/><circle class="cls-12" cx="1478.95" cy="699" r="5"/><circle class="cls-12" cx="433.13" cy="717.35" r="2"/><circle class="cls-12" cx="1415.71" cy="644.32" r="5"/><circle class="cls-10" cx="1029.71" cy="707.35" r="5"/><circle class="cls-10" cx="1046.78" cy="706.43" r="5"/><circle class="cls-10" cx="1759.5" cy="386.99" r="5"/><circle class="cls-10" cx="1462.56" cy="745.9" r="2.04"/><circle class="cls-10" cx="1462.56" cy="745.9" r="2.04"/><circle class="cls-10" cx="802.37" cy="62.19" r="2"/><circle class="cls-12" cx="1304.18" cy="264.47" r="5"/><circle class="cls-10" cx="1398.04" cy="875.76" r="2.04"/><circle class="cls-10" cx="977.71" cy="661.35" r="3.71"/><circle class="cls-12" cx="934.54" cy="135.47" r="5.04"/><circle class="cls-12" cx="1302.55" cy="250.19" r="5"/><circle class="cls-12" cx="1363.75" cy="721.16" r="2"/><circle class="cls-12" cx="438.52" cy="235.72" r="2"/><circle class="cls-10" cx="442.89" cy="557.25" r="2.08"/><circle class="cls-12" cx="1185.13" cy="787.73" r="5"/><circle class="cls-10" cx="1155.36" cy="449.34" r="5"/><circle class="cls-10" cx="1238.74" cy="561.33" r="5.02"/><circle class="cls-12" cx="1023.77" cy="326.05" r="5.44"/><circle class="cls-12" cx="448.33" cy="242.71" r="2"/><circle class="cls-12" cx="1175.23" cy="423.76" r="5"/><circle class="cls-12" cx="1148.48" cy="453.39" r="2"/><circle class="cls-12" cx="1290.67" cy="269.7" r="2"/><circle class="cls-12" cx="1198.56" cy="387.2" r="2.05"/><circle class="cls-12" cx="1161.04" cy="424.12" r="2"/><circle class="cls-12" cx="14.12" cy="608.18" r="5"/><circle class="cls-10" cx="979.08" cy="602.11" r="2"/><circle class="cls-12" cx="1288.42" cy="1037.66" r="5"/><circle class="cls-12" cx="1797.06" cy="380.42" r="5"/><circle class="cls-10" cx="444.26" cy="705.55" r="2"/><circle class="cls-12" cx="520.24" cy="593.03" r="2"/><circle class="cls-12" cx="1214.68" cy="783.27" r="5.09"/><circle class="cls-12" cx="1174.63" cy="423.3" r="5"/><circle class="cls-12" cx="861.14" cy="545.76" r="5"/><circle class="cls-12" cx="940.78" cy="592.96" r="5"/><circle class="cls-10" cx="566.23" cy="353.58" r="2"/><circle class="cls-12" cx="1149.82" cy="421.7" r="2"/><circle class="cls-12" cx="11.64" cy="593.32" r="5"/><circle class="cls-10" cx="444.62" cy="680.69" r="5"/><circle class="cls-12" cx="507.54" cy="626.77" r="2.21"/><circle class="cls-11" cx="1096.01" cy="753.25" r="5"/><circle class="cls-12" cx="527.2" cy="386.57" r="5"/><circle class="cls-10" cx="743.49" cy="647.35" r="2.6"/><circle class="cls-10" cx="842.14" cy="644.35" r="6.89"/><circle class="cls-11" cx="1710.75" cy="416.5" r="5.09"/><circle class="cls-12" cx="1791.63" cy="365.17" r="2"/><circle class="cls-12" cx="1437.03" cy="885.4" r="2"/><circle class="cls-12" cx="977.36" cy="759.7" r="5"/><circle class="cls-12" cx="1416.16" cy="932.11" r="2"/><circle class="cls-12" cx="1193.75" cy="508.51" r="5"/><circle class="cls-10" cx="1656.03" cy="442.36" r="5"/><circle class="cls-10" cx="1048.21" cy="529.57" r="5.02"/><circle class="cls-12" cx="1490.91" cy="880.02" r="2"/><circle class="cls-12" cx="1389.88" cy="663.7" r="2"/><circle class="cls-12" cx="1428.8" cy="954.75" r="2"/><circle class="cls-10" cx="916.3" cy="41.13" r="2.6"/><circle class="cls-10" cx="888.72" cy="14.98" r="2.57"/><circle class="cls-10" cx="890.96" cy="20.96" r="2.25"/><circle class="cls-10" cx="892.44" cy="13.21" r="2.26"/><circle class="cls-12" cx="1298.51" cy="628.84" r="5"/><circle class="cls-12" cx="545.24" cy="385.6" r="2"/><circle class="cls-12" cx="1567.53" cy="901.92" r="2"/><circle class="cls-10" cx="652.87" cy="700.4" r="5"/><circle class="cls-12" cx="1149.74" cy="429.66" r="2"/><circle class="cls-12" cx="1519.13" cy="746.51" r="5"/><circle class="cls-12" cx="630.74" cy="773.58" r="5"/><circle class="cls-10" cx="429.76" cy="231.2" r="5"/><circle class="cls-10" cx="1299.76" cy="571.81" r="3.42"/><circle class="cls-12" cx="1140.36" cy="414.09" r="2"/><circle class="cls-12" cx="1298.51" cy="628.84" r="5"/><circle class="cls-12" cx="722.43" cy="648.41" r="2"/><circle class="cls-12" cx="123.01" cy="589.06" r="5"/><circle class="cls-12" cx="1494.52" cy="865.24" r="5"/><circle class="cls-12" cx="1616.56" cy="883.97" r="5"/><circle class="cls-12" cx="1227.9" cy="808.1" r="5"/><circle class="cls-10" cx="1052.65" cy="519.04" r="3.49"/><circle class="cls-12" cx="1305.18" cy="603.51" r="5"/><circle class="cls-10" cx="467.19" cy="702.18" r="5"/><circle class="cls-11" cx="1123.56" cy="706.92" r="5"/><circle class="cls-10" cx="446.63" cy="319.56" r="2"/><circle class="cls-10" cx="1409.13" cy="917.29" r="3.28"/><circle class="cls-13" cx="663.57" cy="394.35" r="2"/><circle class="cls-13" cx="578.85" cy="329.55" r="5"/><circle class="cls-13" cx="448.02" cy="628.47" r="2"/><circle class="cls-13" cx="967.56" cy="478.3" r="5"/><circle class="cls-13" cx="644.99" cy="356.73" r="3.8"/><circle class="cls-13" cx="437.31" cy="234.94" r="5"/><circle class="cls-13" cx="852.71" cy="539.75" r="2"/><circle class="cls-13" cx="461.34" cy="483.41" r="2"/><circle class="cls-13" cx="595.95" cy="367.93" r="5.59"/><circle class="cls-13" cx="593.2" cy="382.45" r="2"/><circle class="cls-13" cx="466.53" cy="658.91" r="5"/><circle class="cls-13" cx="578.78" cy="329.42" r="7.25"/><circle class="cls-13" cx="556.21" cy="561.77" r="2"/><circle class="cls-13" cx="660.08" cy="414.4" r="2"/><circle class="cls-13" cx="609.88" cy="344.07" r="5"/><circle class="cls-13" cx="1020.67" cy="632.18" r="2"/><circle class="cls-12" cx="1227.9" cy="808.1" r="5"/><circle class="cls-10" cx="1540.35" cy="829.27" r="3.2"/><circle class="cls-10" cx="1313.49" cy="900.92" r="3.8"/><circle class="cls-10" cx="1278.24" cy="290.71" r="5.08"/><circle class="cls-12" cx="1775.98" cy="382.02" r="5"/><circle class="cls-12" cx="1292.72" cy="908.77" r="2"/><circle class="cls-12" cx="1279.32" cy="690.19" r="5"/><circle class="cls-12" cx="1345.7" cy="1040.33" r="5"/><circle class="cls-12" cx="1767.8" cy="959.07" r="2"/><circle class="cls-10" cx="538.3" cy="344.85" r="3.2"/><circle class="cls-10" cx="1102.55" cy="823.68" r="2.19"/><circle class="cls-12" cx="434.42" cy="219.53" r="5"/><circle class="cls-10" cx="559" cy="354.66" r="5"/><circle class="cls-12" cx="517.9" cy="270.36" r="5.01"/><circle class="cls-12" cx="444.26" cy="705.55" r="2"/><circle class="cls-12" cx="1148.65" cy="453.48" r="5"/><circle class="cls-12" cx="1148.35" cy="445.8" r="5"/><circle class="cls-12" cx="1290.66" cy="269.69" r="5"/><circle class="cls-12" cx="952.8" cy="667.63" r="2"/><circle class="cls-10" cx="1042.75" cy="253.03" r="32.25"/><circle class="cls-10" cx="1171.75" cy="791.1" r="5"/><circle class="cls-10" cx="787.81" cy="189.14" r="29.99"/><circle class="cls-10" cx="827.68" cy="75.54" r="2.85"/><circle class="cls-10" cx="454.2" cy="227.29" r="5.01"/><circle class="cls-10" cx="579.41" cy="387.78" r="5"/><circle class="cls-10" cx="1470.55" cy="868.53" r="4.08"/><circle class="cls-10" cx="548.47" cy="371.37" r="2"/><circle class="cls-11" cx="1781.06" cy="961.69" r="2"/><circle class="cls-12" cx="1387.98" cy="655.84" r="2"/><circle class="cls-10" cx="1424.17" cy="705.01" r="6.06"/><circle class="cls-10" cx="1745.17" cy="337.84" r="23.38"/><circle class="cls-10" cx="876.96" cy="20.91" r="2"/><circle class="cls-10" cx="872.36" cy="13.88" r="5.01"/><circle class="cls-10" cx="876.68" cy="18.64" r="2"/><circle class="cls-10" cx="737.41" cy="910.36" r="4.74"/><circle class="cls-10" cx="1150.78" cy="809.07" r="2.96"/><circle class="cls-12" cx="1157.06" cy="423.96" r="2"/><circle class="cls-12" cx="912.32" cy="69.66" r="5"/><circle class="cls-10" cx="937.43" cy="28.59" r="2"/><circle class="cls-12" cx="1770.04" cy="950.18" r="2"/><circle class="cls-12" cx="1142.55" cy="700.22" r="5"/><circle class="cls-12" cx="438.85" cy="230.55" r="2"/><circle class="cls-11" cx="1508.1" cy="677.24" r="5"/><circle class="cls-10" cx="986.61" cy="625.32" r="3.46"/><circle class="cls-12" cx="554.09" cy="381.51" r="5"/><circle class="cls-12" cx="648.34" cy="689.84" r="5"/><circle class="cls-12" cx="1325.66" cy="936.02" r="2"/><circle class="cls-12" cx="1422.09" cy="885.58" r="5"/><circle class="cls-12" cx="1149.74" cy="429.66" r="2"/><circle class="cls-10" cx="823.01" cy="431.31" r="2"/><circle class="cls-11" cx="422.3" cy="486.94" r="2"/><circle class="cls-10" cx="94.33" cy="436.87" r="2"/><circle class="cls-12" cx="962.82" cy="619.89" r="2"/><circle class="cls-10" cx="900.82" cy="550.16" r="3.29"/><circle class="cls-10" cx="1464.16" cy="875.39" r="5.05"/><circle class="cls-10" cx="1407.15" cy="738.53" r="2.13"/><circle class="cls-10" cx="1349.13" cy="644.72" r="2.13"/><circle class="cls-10" cx="1187.76" cy="495.55" r="2.6"/><circle class="cls-10" cx="1139.32" cy="892.53" r="4.28"/><circle class="cls-10" cx="1132.71" cy="793.9" r="2.31"/><circle class="cls-10" cx="1236.4" cy="726.14" r="2.08"/><circle class="cls-10" cx="845.79" cy="446.45" r="2.84"/><circle class="cls-10" cx="609.49" cy="310.17" r="3.2"/><circle class="cls-10" cx="1037.55" cy="631.81" r="2.18"/><circle class="cls-10" cx="1272.33" cy="633.39" r="8.64"/><circle class="cls-10" cx="1145.1" cy="469.44" r="5.1"/><circle class="cls-10" cx="1310.92" cy="622.45" r="5.03"/><circle class="cls-10" cx="486.07" cy="327.79" r="2"/><circle class="cls-12" cx="1295.02" cy="253.21" r="5"/><circle class="cls-10" cx="829.37" cy="686.3" r="2.14"/><circle class="cls-10" cx="1337.41" cy="448.11" r="2.03"/><circle class="cls-10" cx="1445.44" cy="874.53" r="2"/><circle class="cls-10" cx="1422.34" cy="992.8" r="5.04"/><circle class="cls-10" cx="1749.93" cy="946.19" r="6.2"/><circle class="cls-12" cx="466.25" cy="238.45" r="5.01"/><circle class="cls-10" cx="143.15" cy="444.38" r="2.03"/><circle class="cls-10" cx="876.96" cy="20.91" r="2"/><circle class="cls-12" cx="1306.54" cy="613.43" r="5"/><circle class="cls-10" cx="1191.51" cy="791.75" r="5.01"/><circle class="cls-10" cx="1334.53" cy="720.22" r="2.1"/><circle class="cls-12" cx="1116.34" cy="736.45" r="5"/><circle class="cls-10" cx="1125.8" cy="635.61" r="4.05"/><circle class="cls-10" cx="430.27" cy="224.75" r="2.6"/><circle class="cls-10" cx="1488.97" cy="923.52" r="3.21"/><circle class="cls-10" cx="1913.37" cy="858.2" r="5.2"/><circle class="cls-10" cx="1285.01" cy="421.89" r="5.06"/><circle class="cls-10" cx="1534.59" cy="881.44" r="5.01"/><circle class="cls-10" cx="44.61" cy="596.96" r="5"/><circle class="cls-10" cx="14.13" cy="608.18" r="2"/><circle class="cls-10" cx="900.3" cy="24.98" r="3.66"/><circle class="cls-10" cx="1161.84" cy="443.86" r="5.1"/><circle class="cls-12" cx="715.46" cy="935.03" r="2"/><circle class="cls-12" cx="133.98" cy="565.52" r="5"/><circle class="cls-10" cx="573.48" cy="312.02" r="5"/><circle class="cls-10" cx="58.33" cy="434.45" r="2"/><circle class="cls-10" cx="539.46" cy="536.18" r="2.06"/><circle class="cls-10" cx="1258.46" cy="770.67" r="2"/><circle class="cls-10" cx="1048.22" cy="529.56" r="5.02"/><circle class="cls-10" cx="1667.69" cy="804.74" r="5.04"/><circle class="cls-12" cx="924.1" cy="520.5" r="5"/><circle class="cls-12" cx="1295.8" cy="254.2" r="2"/><circle class="cls-10" cx="1380.87" cy="823.31" r="5.01"/><circle class="cls-10" cx="1228.34" cy="603.49" r="5.07"/><circle class="cls-12" cx="1627.23" cy="847.6" r="5"/><circle class="cls-12" cx="1294.91" cy="904.52" r="2"/><circle class="cls-10" cx="664.24" cy="756.98" r="5"/><circle class="cls-10" cx="892.28" cy="21.74" r="2.19"/><circle class="cls-12" cx="1309.05" cy="828.37" r="5"/><circle class="cls-12" cx="1392.28" cy="833.82" r="2"/><circle class="cls-10" cx="1476.88" cy="821.74" r="12.49"/><circle class="cls-10" cx="915.78" cy="726.65" r="5"/><circle class="cls-10" cx="1395" cy="835.2" r="3.49"/><circle class="cls-12" cx="392.74" cy="203.99" r="2"/><circle class="cls-12" cx="785.07" cy="120.6" r="5"/><circle class="cls-10" cx="1281.84" cy="873.47" r="3.92"/><circle class="cls-10" cx="848.96" cy="734.19" r="5"/><circle class="cls-10" cx="823.58" cy="914.79" r="5"/><circle class="cls-10" cx="856.66" cy="873.35" r="8.87"/><circle class="cls-12" cx="1895.55" cy="938.32" r="5.29"/><circle class="cls-12" cx="1413.7" cy="857.36" r="2"/><circle class="cls-12" cx="1056.46" cy="834.49" r="2"/><circle class="cls-10" cx="1063.66" cy="814.61" r="2.6"/><circle class="cls-12" cx="1308.76" cy="937.61" r="2"/><circle class="cls-12" cx="1227.9" cy="808.1" r="5"/><circle class="cls-12" cx="1432.31" cy="742.8" r="2"/><circle class="cls-11" cx="1122.8" cy="705.83" r="5"/></svg>